<svg width="100%" height="100" viewBox="0 0 800 50" xmlns="http://www.w3.org/2000/svg">
  <style>
    .path {
      fill: none;
      stroke: white;
      stroke-width: 2;
      stroke-dasharray: 1000;
      stroke-dashoffset: 1000;
      animation: draw 5s forwards;
    }

    @keyframes draw {
      to {
        stroke-dashoffset: 0;
      }
    }
  </style>
  <path
     d="M46.961 90.022h.28q.031.045.082.05.051.007.076.007H47.507q.172 0 .337.038.165.032.311.12.152.083.273.223.12.14.21.343v.337q0 .108-.058.203-.057.089-.127.171-.063.076-.12.14-.051.063-.051.102 0 .019.025.05.032.026.064.058l.089.07q.063 0 .12.063.064.057.102.146.045.083.07.178.025.095.025.158v.178q-.025.12-.025.216.006.09-.064.222-.044.039-.063.083-.013.038-.032.076-.013.032-.044.064-.026.025-.09.044-.202.133-.418.216-.216.083-.483.083h-.813l-.171-.07-.064.038q-.05.032-.095.032h-.127q.013-.013 0-.026l-.038-.019-.063-.013-.058-.012q-.089 0-.127-.032-.031-.032-.031-.076 0-.09.031-.184.038-.096.127-.096h.108q.038 0 .14-.025.102-.026.14-.026.038 0 .05-.019.02-.019.02-.044 0-.032-.007-.064-.006-.031-.006-.05.032-.032.019-.077-.006-.019-.02-.031v-.16q.039-.088.045-.164.007-.076.007-.114v-.178q.012-.07.031-.14l.026-.102q.013-.057.013-.076 0-.044-.013-.044-.007 0-.013-.013-.006-.013-.006-.07.006-.063.032-.228v-.21q0-.044.025-.108.025-.07.025-.12 0-.166-.057-.267-.057-.108-.146-.178-.082-.07-.184-.108l-.19-.083q-.083-.038-.14-.082-.057-.045-.057-.114 0-.058.044-.102.045-.044.102-.07.057-.032.12-.044.064-.013.102-.013h.127l.28-.057zm.546.622q-.038 0-.095.045-.05.044-.095.108-.045.063-.07.133-.025.064-.006.102v.388q.012.088.025.151.013.058.038.102.026.045.07.064.044.019.133.019.045 0 .121-.032t.152-.076q.077-.051.127-.108.058-.064.058-.12V91.082q0-.058-.039-.134-.038-.076-.107-.14-.064-.07-.147-.114-.082-.05-.165-.05zm-.038 1.448q-.089 0-.146.064-.05.063-.082.146-.026.082-.038.165-.013.082-.013.12v.388q0 .019.013.057.019.038.044.076.032.038.07.07.038.025.082.025.083 0 .127-.019.051-.019.102-.031.083-.02.171-.064.096-.05.172-.114.076-.07.12-.146.045-.083.032-.172-.006-.082-.006-.127 0-.05.006-.076.007-.025.007-.038 0-.019-.007-.044-.006-.083-.063-.14-.057-.057-.14-.083-.082-.031-.184-.044-.095-.013-.178-.013h-.05zm2.8-1.486q.058 0 .083.064.026.063.026.114-.115.4-.204.73l-.076.28-.07.247-.044.197q-.013.076-.013.102 0 .044-.019.146-.013.101 0 .19.02.083.083.115.07.025.235-.083.012-.032.082-.082.07-.051.153-.127.05-.051.063-.102.013-.057.038-.057 0-.05.045-.095.044-.045.044-.083.013-.044.07-.165.057-.12.127-.292.057-.12.108-.26.05-.14.089-.273.038-.134.057-.242.025-.114.025-.184 0-.07.032-.108.032-.038.076-.057.051-.019.102-.019.05-.006.089-.006h.146q.076 0 .12.076.051.076.051.171 0 .02-.019.121-.013.095-.038.222-.019.127-.05.26-.032.134-.064.223-.134.286-.26.571-.128.28-.128.546 0 .032.026.07.013.02.025.032.083 0 .165-.05.09-.051.153-.109.07-.057.12-.108.051-.05.07-.05.02 0 .038.019.026.019.045.038.025.025.044.05 0 .026-.063.128-.057.095-.14.21-.076.107-.152.202-.07.096-.09.115-.063.044-.114.082-.044.032-.082.07-.038.032-.083.083-.038.044-.089.114-.082.082-.171.114-.089.032-.184.032-.045 0-.09-.032-.037-.025-.069-.07-.032-.038-.05-.089-.02-.044-.02-.076v-.178l.051-.152q.02-.063.038-.133.02-.07.02-.12 0-.039-.014-.077-.006-.044-.057-.044-.038 0-.089.05-.05.045-.101.108-.051.057-.095.115-.045.057-.07.076-.038.05-.14.159-.102.101-.216.21-.114.1-.222.183-.102.083-.146.083-.038 0-.076-.038-.038-.032-.07-.083-.026-.044-.045-.089-.019-.05-.019-.07v-.177q0-.051.007-.102.006-.044.006-.089.006-.044.006-.076 0-.038.013-.102.019-.07.019-.159 0-.082.02-.171l.037-.133.051-.242q.013-.044.063-.152.058-.108.058-.292 0-.089.006-.12.006-.039-.076-.039-.038 0-.083.013l-.108.038q-.05.032-.101.05-.051.02-.077.02-.038 0-.082-.045-.045-.05-.045-.127 0-.076.039-.114.038-.044.088-.07.058-.032.108-.057.051-.032.07-.076.083-.064.197-.178.114-.12.235-.235.12-.114.229-.197.114-.082.203-.082zm2.547-.07q.108 0 .178.083.07.076.07.165l-.058.178q.039.038.051.108.007.032.007.07 0 .127-.032.235-.026.108-.026.24v.052q0 .031-.006.076-.006.038-.019.076-.013.045-.025.095v.07q0 .07-.026.115-.019.044-.044.114-.013.05-.045.108-.025.05-.025.12 0 .026.013.07.012.038.038.083.025.038.057.07.038.025.082.025.051 0 .09-.032.044-.031.07-.07.03-.031.063-.05.038-.026.082-.026h.12q.039 0 .045.038.007.038.007.09 0 .018-.058.075l-.127.127-.14.127-.094.077q-.02.044-.083.152-.064.108-.14.222-.076.108-.165.19-.082.09-.146.09-.044 0-.101-.032-.051-.026-.096-.076-.044-.045-.076-.096-.025-.05-.025-.101v-.102q0-.05-.007-.089-.006-.038-.044-.038v-.12l.05-.178v-.299q0-.095.026-.152.026-.057.026-.146v-.057q0-.045.025-.127.032-.083.063-.178.032-.095.058-.184.031-.095.031-.165 0-.051-.044-.108-.038-.064-.133-.064-.039 0-.07.026-.026.025-.16.025-.012-.006-.024-.032-.026-.038-.026-.095v-.102q0-.057.108-.165.114-.114.254-.222.146-.114.28-.197.133-.089.17-.089zm.019-1.498q.025 0 .063-.006.045-.013.09-.02.044-.012.082-.019.044-.012.063-.012.09.031.115.108.025.076.076.158 0 .051.006.102.013.05.013.095 0 .038-.025.096-.026.05-.026.133-.013.044-.038.108-.019.063-.057.12-.032.051-.083.09-.044.031-.108.018-.089 0-.196-.057-.102-.063-.153-.158-.044-.039-.032-.115.013-.076.013-.133 0-.172.057-.28.057-.107.14-.228zm2.965-1.01q.185 0 .229.114.05.115.05.26v.121q0 .09-.056.191-.057.102-.14.19-.083.083-.178.147-.089.057-.152.057-.083 0-.14-.026-.057-.025-.108-.025-.133 0-.28.082-.139.083-.177.267-.05.095-.05.172.005.07-.02.146-.057.133-.12.349-.058.21-.058.394 0 .019-.012.063-.007.045-.02.095l-.025.121v.197l-.089.514q.013.09-.006.21-.013.114-.045.266-.031.153-.063.33-.032.178-.044.375 0 .038.012.127.02.083.064.083.057 0 .12-.038.07-.038.134-.096.063-.057.127-.12l.127-.115q.12-.12.247-.215.127-.102.248-.102l.038.05q0 .07-.038.166-.038.089-.095.184t-.127.178q-.07.082-.134.127-.127.089-.21.216-.075.127-.209.26-.044.095-.14.159-.088.057-.177.108l-.235.095q-.133.063-.229.063-.07 0-.101-.025-.026-.019-.032-.063-.006-.045 0-.115.013-.07.013-.171v-.407q0-.089.031-.177.038-.09.038-.172v-.127q0 .05.013-.044.013-.102.032-.292.019-.197.032-.464.012-.267.012-.559 0-.038.032-.108.038-.076.038-.12v-.229q.038-.184.057-.362l.038-.35q.02-.17.051-.342.032-.178.102-.356.05-.171.165-.33.114-.159.203-.343.045-.082.095-.152.058-.07.14-.114.089-.146.241-.229.16-.089.305-.089zm2.75 0h.178q.025 0 .05.038.026.038.039.09.019.056.031.12v.178q0 .222-.152.374-.152.153-.394.153-.012-.013-.031-.026-.039-.025-.07-.025-.045 0-.09.013-.044.012-.069.038-.038.038-.089.14-.044.101-.089.215-.038.108-.07.21-.031.095-.038.127l-.032.159q-.038.108-.082.19-.038.083-.07.172-.025.088-.044.19-.02.102-.02.241-.025.045-.063.184-.032.134-.063.286-.026.146-.045.273-.019.12-.019.14v.12q0 .032-.013.102-.006.07-.019.146-.006.076-.019.146-.006.064-.006.083-.02.07-.025.127 0 .057.006.095.006.05.019.083 0 .019-.013.07-.006.05-.006.107 0 .058.013.102.012.038.063.038.083 0 .165-.057.09-.057.16-.127l.12-.133q.057-.058.082-.058.038 0 .07.039.038.038.038.088-.063.07-.108.14-.044.064-.076.134-.032.063-.032.133-.025.07-.076.14-.05.063-.114.14-.064.075-.127.158-.057.076-.102.159 0 .019-.032.05-.025.026-.063.051-.038.026-.083.045-.038.025-.057.032-.146.108-.247.158-.102.051-.102-.019-.063.032-.089-.019-.025-.044-.038-.14-.006-.088 0-.203.006-.12.006-.222.007-.102 0-.171-.006-.07-.038-.07-.05 0-.133.07-.076.063-.165.158-.057.051-.133.146-.077.096-.16.19-.075.09-.152.16-.07.07-.108.07-.063 0-.127-.039-.063-.031-.114-.082-.044-.05-.076-.114-.032-.07-.032-.14V93.007q0-.02.013-.09.013-.075.032-.164.019-.102.044-.223 0-.025.006-.07l.026-.082q.019-.044.038-.095v-.051l.025-.127q.013-.05.02-.102.006-.05.006-.07.038-.095.05-.177.02-.083.077-.178.019-.14.095-.241.082-.102.19-.185.108-.082.216-.152.115-.076.203-.165.039 0 .07-.006.064-.013.108-.064.115-.019.178-.032.07-.012.108-.038.044-.031.057-.076.02-.044.026-.133l.05-.178.058-.387.05-.248q0-.02.013-.089.013-.07.032-.146.019-.076.038-.14.019-.07.025-.082.013-.032.013-.051v-.057q0-.026.019-.076l.044-.115q.026-.063.058-.12l.057-.115q.063-.082.14-.19.076-.108.158-.203.083-.096.172-.165.089-.077.184-.096h.05q.096 0 .115-.025.025-.025.063-.025zm-1.854 3.251q-.127 0-.248.083-.12.082-.216.203-.089.12-.146.248-.057.127-.057.222 0 .025-.019.14-.013.108-.006.222.012.108.07.184.057.076.203.038.12-.032.228-.159.115-.127.19-.298.083-.171.121-.356.045-.19.039-.349 0-.05-.02-.089-.012-.031-.05-.057-.032-.032-.09-.032zm2.089-.743q.108 0 .178.083.07.076.07.165l-.058.178q.039.038.051.108.007.032.007.07 0 .127-.032.235-.026.108-.026.24v.052q0 .031-.006.076-.006.038-.019.076-.013.045-.025.095v.07q0 .07-.026.115-.019.044-.044.114-.013.05-.045.108-.025.05-.025.12 0 .026.013.07.012.038.038.083.025.038.057.07.038.025.082.025.051 0 .09-.032.044-.031.07-.07.03-.031.063-.05.038-.026.082-.026h.12q.039 0 .045.038.007.038.007.09 0 .018-.058.075l-.127.127-.14.127-.094.077q-.02.044-.083.152-.064.108-.14.222-.076.108-.165.19-.082.09-.146.09-.044 0-.101-.032-.051-.026-.096-.076-.044-.045-.076-.096-.025-.05-.025-.101v-.102q0-.05-.007-.089-.006-.038-.044-.038v-.12l.05-.178v-.299q0-.095.026-.152.026-.057.026-.146v-.057q0-.045.025-.127.032-.083.063-.178.032-.095.058-.184.031-.095.031-.165 0-.051-.044-.108-.038-.064-.133-.064-.039 0-.07.026-.026.025-.16.025-.012-.006-.024-.032-.026-.038-.026-.095v-.102q0-.057.108-.165.114-.114.254-.222.146-.114.28-.197.133-.089.17-.089zm.019-1.498q.025 0 .063-.006.045-.013.09-.02.044-.012.082-.019.044-.012.063-.012.09.031.115.108.025.076.076.158 0 .051.006.102.013.05.013.095 0 .038-.025.096-.026.05-.026.133-.013.044-.038.108-.019.063-.057.12-.032.051-.083.09-.044.031-.108.018-.089 0-.196-.057-.102-.063-.153-.158-.044-.039-.032-.115.013-.076.013-.133 0-.172.057-.28.057-.107.14-.228zm1.657 1.606q.07 0 .108.045.038.044.07.095.02.045.013.12-.006.077-.026.153-.012.076-.031.146-.013.07-.013.095l.019.102.07.127q.025 0 .095-.07.076-.076.172-.184.101-.108.21-.229.107-.127.209-.235.101-.107.184-.177.082-.077.12-.077.051 0 .083.064.038.063.07.133.032.083.057.19.006.09-.013.248-.019.16-.063.35-.038.184-.09.38-.044.191-.088.356-.038.16-.07.267-.025.108-.025.114 0 .026-.007.064-.006.032-.006.063 0 .026.013.045.019.019.07.019l.076-.051q.032-.025.07-.05l.082-.058.197-.127q.095-.063.12-.063.039 0 .083.044.045.038.045.076 0 .013-.045.07-.038.057-.095.12-.057.064-.114.115-.057.05-.083.05 0 .052-.038.096-.032.045-.07.045-.101.108-.171.21-.07.1-.14.19-.07.082-.152.133-.083.05-.21.05-.044 0-.095-.031-.045-.032-.083-.076-.038-.051-.063-.102-.02-.057-.02-.095l-.018-.229q.038-.171.095-.368.063-.197.114-.368.051-.146.083-.28.032-.133.044-.254v-.07q-.025-.177-.127-.177-.152 0-.241.07-.089.063-.146.17-.057.103-.102.223-.038.12-.089.229-.031.038-.044.076-.006.032.006.083-.012.076-.031.152-.013.076-.039.146-.07.203-.133.406-.063.197-.114.369.032.05-.013.057-.038.013-.076.013t-.108-.006q-.07 0-.14-.02-.063-.019-.12-.057-.051-.038-.058-.108-.012-.108.026-.222.038-.12.082-.222.051-.102.096-.178.044-.076.044-.102V92.5l-.032-.108q0-.038.026-.095.025-.064.05-.121l.058-.114q.025-.051.025-.077v-.088l-.019-.248q0-.038-.013-.076-.006-.045-.057-.045-.038 0-.089.02-.044.018-.095.044l-.089.038q-.038.019-.063.019h-.051q-.045-.025-.026-.095.026-.077.026-.115.159-.222.305-.387.152-.171.362-.305.044-.025.12-.063t.146-.038zm2.966-.019q.114 0 .19.057.083.058.134.14.057.083.076.178.025.089.025.152v.235q0 .07-.038.254-.038.178-.089.375l-.082.362q-.038.165-.038.21v.12q0 .038-.051.12-.045.077-.102.198-.05.114-.101.273-.045.158-.045.362v.355q.05.09.064.19.019.102.114.23.05.095.063.215.02.12.058.21.019.114.025.178.013.063.019.114.006.05.006.101v.381q-.019.096-.07.16-.05.07-.114.126-.057.057-.12.102-.064.05-.102.095-.089.089-.203.165-.108.076-.146.076l-.178.057h-.12q-.058 0-.16.026-.101.025-.145.025h-.369q-.089 0-.159-.038t-.127-.095q-.057-.051-.101-.114l-.089-.102q-.038-.02-.083-.07-.044-.044-.082-.101-.038-.051-.057-.108-.026-.058-.026-.096v-.177q0-.108.032-.185.025-.076.076-.184.026-.082.115-.203.088-.114.133-.203.025-.032.07-.057.044-.02.089-.045.044-.025.089-.057.044-.025.07-.07.088-.05.145-.095.058-.044.153-.083.044 0 .089-.031.05-.026.095-.07.044-.038.083-.083.044-.038.082-.063.057-.038.089-.057.038-.013.038-.064.05-.044.12-.089.077-.038.128-.089.032-.114.057-.222.025-.089.044-.178.02-.095.02-.146 0-.082-.077-.095-.076-.013-.171-.013h-.051q-.025 0-.089-.038-.057-.038-.12-.089l-.115-.101q-.044-.051-.044-.07v-.127q0-.127-.032-.19-.025-.07-.025-.16 0-.133.063-.33.07-.203.152-.4l.166-.362q.076-.165.095-.235.044-.038.108-.057.07-.025.07-.12.095-.077.215-.178.127-.102.26-.102zm-.26.864q-.07 0-.121.076-.045.07-.083.165-.032.095-.05.184-.013.09-.013.121v.286q.031.101.057.178.025.07.057.12.032.051.064.051l.088-.082.096-.33q.031-.128.063-.248.032-.127.032-.165 0-.032-.006-.09 0-.063-.02-.12-.018-.057-.057-.102-.038-.044-.108-.044zm-.394 2.946q-.09 0-.165.051-.077.057-.165.146 0 .026-.077.09-.07.069-.158.17-.083.108-.153.255-.076.146-.076.33 0 .07.089.127.082.057.19.101.108.045.21.07.108.026.146.026.063 0 .14-.051.082-.045.146-.12.07-.077.114-.166.044-.089.044-.178v-.247q0-.026-.012-.127-.007-.096-.038-.204-.032-.101-.09-.19-.05-.083-.145-.083zm4.642-3.918q.095 0 .171.09.076.088.076.177 0 .07-.101.12-.102.045-.229.09l-.254.076q-.12.038-.159.082-.057.058-.082.134-.026.07-.026.146 0 .076.026.146.025.07.063.127.045.089.102.19.063.096.114.223.05.127.083.285.038.16.038.356 0 .171-.115.35-.114.17-.292.304-.14.076-.216.127-.076.044-.133.07-.057.032-.114.038-.051.013-.134.013h-.228q-.032 0-.083.006-.05.006-.101.019l-.134.025H65.51q-.177 0-.177-.171 0-.045.057-.14.057-.095.146-.184.083-.089.178-.159.095-.07.165-.07.019 0 .063.032l.102.057q.063.032.14.064.076.025.171.025.064 0 .114-.038.058-.038.096-.089.038-.057.057-.114.019-.064.019-.108 0-.108-.083-.26-.082-.16-.184-.318-.101-.165-.184-.311-.083-.146-.083-.241v-.07q.026-.108.077-.223.05-.114.114-.21.063-.094.14-.164.076-.076.165-.095.044-.026.089-.083.05-.057.089-.108.05-.05.088-.095.045-.051.09-.064.05-.044.158-.05.108-.007.159-.007zm1.289.058q.089 0 .216.006.133.006.222.044.095 0 .12.077.032.076.077.171.025.025.057.07.038.044.063.095.032.045.051.095.02.051.02.09l-.052.564q0 .178-.076.394-.076.216-.222.387-.05.051-.076.115-.02.057-.045.12-.019.064-.05.134-.026.063-.077.127-.038.044-.089.108-.044.063-.101.133-.051.064-.115.12-.057.052-.12.077-.095.05-.159.089-.063.038-.114.063-.051.026-.108.032-.051.013-.115.013-.095 0-.177-.045-.083-.044-.146-.114-.058-.076-.096-.165-.038-.095-.038-.19v-.426q0-.038-.025-.07-.026-.032-.026-.178-.006-.184.09-.444.095-.26.222-.508.133-.254.26-.445.133-.196.203-.24.07-.045.114-.096.051-.057.096-.102.044-.044.089-.07.05-.031.127-.031zm.031.723q-.101 0-.21.09-.1.082-.19.196-.089.108-.158.222-.07.108-.096.16l-.063.24q-.026.09-.045.172-.012.083-.012.102v.12q.025.02.044.076.02.058.045.115.031.057.07.101.038.045.107.045.127-.057.235-.115.09-.05.172-.108.089-.057.12-.114.039-.089.083-.21l.095-.228q-.012-.05.026-.102.044-.05.044-.095v-.178q0-.031-.019-.108-.013-.082-.05-.165-.033-.089-.083-.152-.051-.064-.115-.064zm2.896-3.32q.095-.026.184.012.089.032.159.102.07.063.108.152.044.083.044.159 0 .038-.025.108-.02.07-.057.146-.032.07-.064.133-.032.057-.05.07-.045.044-.096.064-.044.012-.089.019-.044 0-.089.006-.044.006-.082.032-.051.019-.127.038-.076.012-.153.044-.076.026-.152.076-.07.051-.114.146-.02.07-.064.26l-.089.394-.108.528q0 .07.032.107.038.039.089.064.05.025.108.032.057.006.102.006h.196q.02 0 .045.013l.063.025q.032.02.07.032v.127q0 .019-.032.07-.025.044-.07.095-.037.044-.082.083-.038.031-.063.031h-.299q-.184 0-.248.057-.057.058-.057.19-.012.039-.025.07-.013.033-.02.064-.005.026-.005.045 0 .222-.026.419-.025.19-.025.273 0 .025-.02.127-.012.095-.037.216l-.038.222q-.013.108-.013.152l-.02.305q0 .02-.012.07-.006.05-.019.108l-.013.114q-.006.051-.006.076 0 .108-.013.166-.006.063-.025.101-.013.038-.025.064-.007.031-.007.076 0 .025-.025.108-.02.089-.051.19-.025.102-.064.197-.031.095-.057.14-.076.095-.127.165-.05.076-.101.222-.038.02-.134.102-.089.089-.197.184-.107.095-.21.171-.107.077-.183.077-.07 0-.108.006-.045.012-.083.025-.038.019-.07.025-.038.013-.095.013h-.05q-.039 0-.064-.006-.032-.006-.045.006-.025.013-.05.013-.032.006-.07.006-.032 0-.095-.006l-.127-.013q-.07-.006-.127-.013-.058-.006-.077-.006-.025 0-.101-.019-.076-.012-.153-.05-.082-.032-.14-.083-.063-.044-.063-.114 0-.02.032-.076.025-.051.063-.115.038-.063.077-.12.038-.058.057-.077 0-.025.057-.082.05-.05.127-.102.076-.05.159-.095.082-.038.133-.038h.108q.013.013.038.032.013.012.038.025l.032.032.159.05q.044.013.082.02.032.013.07.013.038.006.057.006h.14q.133 0 .235-.064.095-.057.19-.165.032-.006.07-.114.038-.108.083-.26.044-.153.082-.337.045-.178.076-.343.039-.159.058-.28.019-.12.019-.152v-.12q0-.013.012-.109l.032-.228q.026-.14.05-.305.033-.165.058-.324t.05-.292q.026-.133.045-.21 0-.044.007-.095.006-.057.019-.101l.025-.102q0-.082-.076-.12-.07-.039-.165-.058-.09-.019-.165-.044-.07-.026-.07-.095 0-.045.006-.09.013-.05.064-.088.038-.045.108-.057.07-.02.14-.026.07-.012.126-.038.064-.025.09-.089.025-.031.05-.12.025-.09.044-.21.02-.12.039-.26t.031-.26q.013-.128.02-.223.006-.101.006-.146.031-.05.07-.133.038-.09.038-.165 0-.077.038-.153.038-.082.089-.159.057-.076.114-.14.063-.063.114-.1.09-.09.146-.166.057-.076.153-.165.044-.02.082-.05.038-.039.076-.07.045-.032.09-.051.05-.026.12-.026zm1.092 1.644q.057 0 .108.006.057 0 .102.02.05.012.076.05.032.032.032.096 0 .038-.09.146l-.196.228q-.102.12-.19.241-.09.115-.09.178 0 .051.026.076.032.026.07.039l.076.012h.273q.013-.012.038-.031.05-.039.083-.039.095 0 .133.077.044.076.044.171v.172q0 .07-.076.107-.076.039-.171.058-.09.019-.178.025-.083.006-.102.006-.095 0-.108-.006-.012-.013-.05-.013h-.127q-.038 0-.108.038-.07.039-.07.09 0 .07-.006.126l-.013.09-.013.082q-.019.038-.038.07-.032.063-.032.108v.07q0 .107-.031.234-.032.127-.058.153-.031.032-.05.063-.02.026-.02.146v.127q0 .038.013.096.013.05.045.095.031.044.076.076.044.032.114.032.083 0 .14-.045.025-.019.05-.044.052 0 .077.032.032.025.057.057.025.038.045.089 0 .05-.045.133-.038.083-.095.165-.057.076-.12.14-.064.057-.109.057-.044 0-.089.07-.038.076-.038.108-.019 0-.07.013l-.101.025q-.064.019-.127.032-.083 0-.134-.013-.044-.006-.044-.057-.02-.013-.057-.095-.038-.076-.076-.172-.038-.095-.07-.184-.026-.095-.026-.133v-.299q0-.025.013-.114.02-.095.038-.203.026-.114.038-.222.02-.115.02-.185v-.108q.05-.146.095-.26.031-.101.063-.184.032-.089.032-.102v-.196q0-.083-.051-.102-.038-.032-.083-.064-.044-.031-.044-.082 0-.038.025-.076.032-.045.07-.09.045-.044.083-.088.044-.05.07-.095.044-.096.082-.115.045-.025.095-.063.083-.095.178-.159.096-.063.178-.197.05-.089.076-.178.026-.088.115-.14.082-.025.146-.095.063-.076.101-.076zm1.08 1.676q.006.064.012.102l.013.064.013.076q.006.044.012.127 0 .12.007.197.013.076.063.158.013.051.007.108l-.013.095q-.006.045 0 .07.013.026.057.026.095 0 .127-.038.032-.045.07-.09.07-.088.159-.209.095-.12.127-.21.019-.095.019-.145 0-.058-.007-.096l-.012-.082q0-.045.012-.102v-.019q0-.044-.006-.063 0-.02-.013-.026-.006-.006-.025-.006-.02-.006-.057-.025h-.09q-.05 0-.082-.045-.019-.019-.025-.044-.013-.045.019-.09.032-.044.083-.07.05-.03.108-.05.063-.019.107-.019.045-.057.077-.076.038-.02.063-.026.032-.012.057-.019.032-.006.07-.025.038-.05.127-.095.09-.045.172-.045.12.032.114.121 0 .083-.045.216v.07q0 .038.007.082.006.045.05.045.045-.007.14-.09.102-.082.216-.177.114-.095.222-.171.108-.077.178-.077.095 0 .184.032.096.032.178.083.083.044.146.114.064.063.095.127.064.089.077.216.019.12-.007.241l-.216.635q-.025.108-.12.203-.09.096-.159.204-.082.12-.184.254-.102.127-.222.254-.057.07-.096.101l-.076.064q-.032.025-.076.07-.044.038-.108.12-.032.05-.102.114-.063.064-.14.121-.075.057-.158.095t-.146.038q-.133 0-.222-.044-.09-.038-.076-.127.025-.095.025-.14.006-.05.006-.089l.038-.108q-.012-.133-.038-.235-.025-.107 0-.24.032-.147.007-.242-.02-.095-.058-.095-.107 0-.21.14-.1.133-.196.266-.05.083-.05.133 0 .051-.058.134-.05.108-.108.171-.05.064-.063.146-.032.045-.064.102-.025.05-.057.095t-.076.07q-.045.032-.108.032-.045 0-.102-.013-.05-.013-.095-.038-.038-.025-.063-.057-.026-.038-.02-.089.039-.14.058-.241.025-.102.012-.286 0-.12-.025-.229-.02-.114.006-.247l.02-.21q-.007-.082-.013-.12 0-.045-.007-.077 0-.038-.006-.07 0-.038-.006-.108l-.02-.063q0-.032-.006-.044-.006-.02-.012-.032v-.178q0-.083-.064-.12-.057-.039-.146-.039-.038 0-.063.02-.02.012-.045.037-.025.02-.063.038-.038.013-.115.013-.044 0-.076-.032-.019-.019-.032-.038 0-.082.064-.158.063-.077.114-.077.095-.089.153-.146.057-.057.146-.095.019-.025.082-.095.07-.07.146-.134.083-.07.159-.12.083-.057.127-.057.095 0 .133.07.045.063.057.158.013.09.007.184v.134zm1.32.318q-.019.089-.012.152.006.064.019.127.019.064.032.14.019.076.019.178-.013.05-.013.14 0 .082.013.165.012.082.044.146.032.063.076.063.076 0 .165-.063.096-.064.178-.153.083-.089.14-.184.063-.095.082-.165.026-.133.039-.222.012-.095 0-.172-.007-.082-.045-.158-.038-.083-.102-.19-.025-.052-.12-.083-.09-.039-.178-.039-.038 0-.095.032t-.108.083q-.051.044-.09.101-.037.057-.044.102zm3.474-1.099q.133 0 .19.077.058.076.058.21 0 .025-.02.113-.019.083-.05.19-.026.103-.057.21l-.051.172q0 .05-.007.108-.006.05-.044.14-.05.038-.05.127v.12l-.02.337v.317l.013.096q.013.044.038.082.025.032.07.032l.089-.14.089-.076q.05-.05.101-.095.057-.051.115-.108.038 0 .063.032.025.031.025.07l-.025.05q-.025.051-.05.076-.045.127-.115.223-.07.089-.152.178l-.172.171q-.082.089-.159.203l-.14.197q0 .057-.037.114-.032.064-.083.096-.044.038-.102.031-.05 0-.082-.07-.038-.114-.038-.222 0-.114.019-.216.019-.108.038-.203.019-.095.019-.184v-.356q0-.031-.045-.044-.025-.006-.044-.006-.019 0-.095.114l-.178.254q-.095.14-.197.286-.101.146-.165.21-.019.025-.063.076-.039.044-.09.089-.044.044-.101.076-.057.038-.102.038-.088 0-.146-.063-.057-.064-.089-.147-.031-.088-.05-.171-.013-.089-.013-.127l-.02-.457.09-.743q0-.02.019-.089.019-.07.05-.152.032-.083.07-.16.045-.082.09-.133.184-.171.355-.419.083-.114.159-.165.076-.05.152-.076.076-.032.153-.044.076-.02.171-.07.038 0 .095-.038l.115-.083h.285zm-.813.705q-.114.095-.216.222-.101.121-.178.248-.076.127-.12.241-.045.108-.045.172 0 .032-.006.12-.006.083.006.178.013.09.045.165.038.07.127.07.082 0 .19-.146.115-.146.21-.33.101-.184.165-.343.07-.159.07-.19 0-.026.006-.121.006-.102-.013-.19-.012-.096-.07-.134-.05-.044-.17.038zm2.267-.686q.07-.012.089.02.025.031.108.07.07.037.12.088.051.051.051.12l-.012.07q-.013.083.012.16 0 .057-.025.14-.02.075-.006.126.012.026.038.051l.038.038q.025.013.044 0 .064-.013.134-.12.076-.109.146-.242.07-.133.14-.26t.126-.172l.197-.05q.038-.013.083-.007.05.007.076.007.12.07.152.196.032.121.045.19.006.09-.064.236-.063.146-.165.241-.044.026-.082.045l-.076.025h-.051l-.038-.02q-.032-.012-.064-.012-.025-.006-.063-.006-.083 0-.16.063-.069.064-.139.134-.108.133-.171.305-.057.165-.057.31-.045.045-.108.115-.058.064-.09.152-.037.09-.037.185.006.095-.032.184.006.076 0 .178-.006.095-.026.203-.012.108-.038.21-.025.094-.057.17-.044.033-.108.058-.063.025-.133.038-.076.019-.165.025-.032 0-.083-.05-.025-.026-.044-.051l-.09-.178q-.005-.044.014-.152t.044-.216l.045-.203q.025-.09.025-.102.14-.21.184-.438.045-.235.095-.464l-.05-.419q-.032-.082-.083-.082-.044 0-.095.012-.102.02-.146.057-.045.032-.077.07-.031.038-.07.076-.037.032-.133.045-.05 0-.063-.064-.013-.063-.026-.114-.012-.057.02-.108.031-.057.082-.101.057-.051.127-.096.07-.05.127-.101.076-.083.133-.178.057-.102.115-.184.057-.09.127-.146.076-.064.19-.076zm2.616.039q.134 0 .223.05.095.045.152.127.057.083.082.19.026.109.02.23 0 .17-.127.279-.127.101-.26.178-.121.082-.261.146-.134.063-.254.14-.114.076-.197.177-.076.102-.083.26v.267q-.012.108.045.216.057.102.146.102.006.006.05-.02.045-.025.096-.056.057-.039.108-.077.057-.038.082-.057.096-.044.147-.07.057-.031.082-.019.045 0 .076.013.032.013.032.095-.013.14-.12.273-.109.127-.236.241-.127.108-.247.191-.12.082-.159.12-.108.096-.203.102-.09.006-.184.006-.057-.006-.121-.05-.057-.045-.108-.102-.044-.064-.07-.127-.025-.064-.019-.108v-.108q0-.044-.025-.095-.013-.026-.026-.045l.02-.127v-.101q0-.026.012-.134.013-.114.032-.241.019-.133.032-.248l.025-.158q.025-.02.025-.039t-.006-.038q-.006-.019-.006-.044 0-.032.025-.07 0-.076.032-.159l.038-.089.089-.21q.013-.139.133-.285.12-.152.28-.273.165-.12.336-.19.172-.077.292-.064zm-.285.476q-.032 0-.064.05-.032.045-.063.102-.032.07-.064.146-.006.032-.019.076-.013.039-.02.077-.005.031.007.057.013.019.051.019.032.006.095-.013.064-.019.127-.057.07-.038.12-.089.058-.057.064-.12v-.109q0-.031-.019-.057-.019-.025-.044-.038-.025-.019-.064-.032zm4.413-.534q.133 0 .19.077.057.076.057.21 0 .025-.019.113-.019.083-.05.19-.026.103-.058.21l-.05.172q0 .05-.007.108-.006.05-.044.14-.05.038-.05.127v.12l-.02.337v.317l.013.096q.012.044.038.082.025.032.07.032l.089-.14.088-.076q.051-.05.102-.095.057-.051.114-.108.038 0 .064.032.025.031.025.07l-.025.05q-.026.051-.05.076-.045.127-.115.223-.07.089-.153.178l-.171.171q-.083.089-.159.203l-.14.197q0 .057-.038.114-.031.064-.082.096-.045.038-.102.031-.05 0-.082-.07-.038-.114-.038-.222 0-.114.019-.216.019-.108.038-.203.019-.095.019-.184v-.356q0-.031-.045-.044-.025-.006-.044-.006-.02 0-.095.114-.077.108-.178.254-.095.14-.197.286-.102.146-.165.21l-.064.076q-.038.044-.089.089-.044.044-.101.076-.057.038-.102.038-.089 0-.146-.063-.057-.064-.089-.147-.031-.088-.05-.171-.013-.089-.013-.127l-.02-.457.09-.743q0-.02.019-.089.019-.07.05-.152.032-.083.07-.16.045-.082.09-.133.183-.171.355-.419.082-.114.159-.165.076-.05.152-.076.076-.032.152-.044.077-.02.172-.07.038 0 .095-.038.064-.045.114-.083h.286zm-.813.705q-.114.095-.216.222-.102.121-.178.248t-.12.241q-.045.108-.045.172 0 .032-.006.12-.006.083.006.178.013.09.045.165.038.07.127.07.082 0 .19-.146.114-.146.21-.33.101-.184.165-.343.07-.159.07-.19 0-.026.006-.121.006-.102-.013-.19-.012-.096-.07-.134-.05-.044-.171.038zm2.299-.578q.07 0 .108.045.038.044.07.095.019.045.012.12-.006.077-.025.153-.013.076-.032.146-.013.07-.013.095l.02.102.07.127q.025 0 .094-.07.077-.076.172-.184.102-.108.21-.229.107-.127.209-.235.102-.107.184-.177.083-.077.12-.077.052 0 .083.064.038.063.07.133.032.083.057.19.007.09-.012.248-.02.16-.064.35-.038.184-.089.38-.044.191-.089.356-.038.16-.07.267-.025.108-.025.114 0 .026-.006.064-.007.032-.007.063 0 .026.013.045.02.019.07.019l.076-.051q.032-.025.07-.05l.083-.058.196-.127q.096-.063.121-.063.038 0 .083.044.044.038.044.076 0 .013-.044.07-.038.057-.096.12-.057.064-.114.115-.057.05-.082.05 0 .052-.039.096-.031.045-.07.045-.101.108-.17.21-.07.1-.14.19-.07.082-.153.133-.083.05-.21.05-.044 0-.095-.031-.044-.032-.082-.076-.038-.051-.064-.102-.019-.057-.019-.095l-.019-.229q.038-.171.095-.368.064-.197.115-.368.05-.146.082-.28.032-.133.045-.254v-.07q-.026-.177-.127-.177-.153 0-.242.07-.089.063-.146.17-.057.103-.101.223-.038.12-.09.229-.031.038-.044.076-.006.032.007.083-.013.076-.032.152-.013.076-.038.146-.07.203-.134.406-.063.197-.114.369.032.05-.013.057-.038.013-.076.013t-.108-.006q-.07 0-.14-.02-.063-.019-.12-.057-.05-.038-.057-.108-.013-.108.025-.222.038-.12.083-.222.05-.102.095-.178.044-.076.044-.102V92.5l-.031-.108q0-.038.025-.095.025-.064.05-.121l.058-.114q.025-.051.025-.077v-.088l-.019-.248q0-.038-.012-.076-.007-.045-.057-.045-.039 0-.09.02-.044.018-.095.044l-.089.038q-.038.019-.063.019h-.05q-.045-.025-.026-.095.025-.077.025-.115.159-.222.305-.387.152-.171.362-.305.044-.025.12-.063.077-.038.147-.038zm4.978-2.616h.178q.025 0 .05.038.026.038.039.09.019.056.032.12v.178q0 .222-.153.374-.152.153-.394.153-.012-.013-.031-.026-.038-.025-.07-.025-.045 0-.09.013-.044.012-.069.038-.038.038-.089.14-.044.101-.089.215-.038.108-.07.21-.031.095-.038.127l-.031.159q-.039.108-.083.19-.038.083-.07.172-.025.088-.044.19-.02.102-.02.241-.025.045-.063.184-.032.134-.063.286-.026.146-.045.273-.019.12-.019.14v.12q0 .032-.013.102-.006.07-.019.146-.006.076-.019.146-.006.064-.006.083-.02.07-.025.127 0 .057.006.095.006.05.019.083 0 .019-.013.07-.006.05-.006.107 0 .058.013.102.012.038.063.038.083 0 .165-.057.09-.057.159-.127.07-.076.12-.133.058-.058.083-.058.038 0 .07.039.038.038.038.088-.063.07-.108.14-.044.064-.076.134-.032.063-.032.133-.025.07-.076.14-.05.063-.114.14-.064.075-.127.158-.057.076-.102.159 0 .019-.032.05-.025.026-.063.051-.038.026-.083.045-.038.025-.057.032-.146.108-.247.158-.102.051-.102-.019-.064.032-.089-.019-.025-.044-.038-.14-.006-.088 0-.203.006-.12.006-.222.007-.102 0-.171-.006-.07-.038-.07-.05 0-.133.07-.076.063-.165.158-.057.051-.134.146-.076.096-.158.19-.077.09-.153.16-.07.07-.108.07-.063 0-.127-.039-.063-.031-.114-.082-.045-.05-.076-.114-.032-.07-.032-.14V93.007q0-.02.013-.09.012-.075.031-.164l.045-.223q0-.025.006-.07l.026-.082q.019-.044.038-.095v-.051l.025-.127q.013-.05.02-.102.005-.05.005-.07.039-.095.051-.177.02-.083.076-.178.02-.14.096-.241.082-.102.19-.185.108-.082.216-.152.114-.076.203-.165.038 0 .07-.006.064-.013.108-.064.114-.019.178-.032.07-.012.108-.038.044-.031.057-.076.019-.044.025-.133l.051-.178.057-.387.051-.248q0-.02.013-.089.013-.07.032-.146.019-.076.038-.14.019-.07.025-.082.013-.032.013-.051v-.057q0-.026.019-.076l.044-.115q.026-.063.057-.12l.058-.115q.063-.082.14-.19.075-.108.158-.203.083-.096.171-.165.09-.077.185-.096h.05q.096 0 .115-.025.025-.025.063-.025zm-1.854 3.251q-.127 0-.248.083-.12.082-.216.203-.089.12-.146.248-.057.127-.057.222 0 .025-.019.14-.013.108-.006.222.012.108.07.184.057.076.203.038.12-.032.228-.159.115-.127.19-.298.083-.171.121-.356.045-.19.039-.349 0-.05-.02-.089-.012-.031-.05-.057-.032-.032-.09-.032zm5.035-1.428q.14 0 .21.063.07.057.095.153.032.095.038.21l.026.209v.228q.038.07.095.19.063.115.063.236v.158q0 .02.032.115l.07.21q.044.114.076.222.032.101.032.14 0 .12.032.323.032.197.082.387.051.19.115.33.07.14.146.14.089 0 .14.02.05.018.088.018.02 0 .064.006.05.006.101.026.057.019.096.057.038.032.038.089 0 .127-.09.178-.088.05-.209.05l-.425-.019h-.636l-.177.02q-.038 0-.127-.006-.083-.006-.083-.051 0-.09.077-.146.082-.057.19-.096.089-.031.146-.07.064-.038.064-.126 0-.02-.02-.096-.012-.076-.038-.158-.019-.09-.05-.153-.026-.07-.051-.07-.02-.063-.032-.14-.006-.076-.025-.133-.013-.063-.051-.095-.032-.032-.102-.02h-.292q-.05 0-.108.007-.057.006-.114.019-.051.006-.07.025-.083.038-.07.115.02.07.02.152-.02.025-.058.102-.038.07-.076.152l-.057.152q-.026.07-.026.09 0 .076.038.107.045.032.096.064.05.025.088.076.045.05.045.171 0 .039-.026.064-.025.019-.063.032l-.07.012h-.05q0 .02-.013.026-.013.006-.039.006-.019 0-.057-.032h-.07q-.038 0-.082-.006l-.114-.013q-.083 0-.134.02-.05.018-.133.018-.089 0-.127.006l-.057.02-.02.019q-.006.006-.025.006-.031 0-.114-.006-.076-.006-.159-.026-.082-.013-.146-.038-.057-.032-.057-.07 0-.12.07-.203.076-.083.197-.083l.12-.031q.013 0 .045-.02.038-.025.076-.057l.076-.063q.045-.038.07-.057.038-.159.134-.343.101-.19.184-.362.038-.108.095-.222.063-.12.114-.203.064-.121.108-.235.045-.115.083-.229.038-.12.082-.241.045-.12.102-.248.044-.095.07-.203.025-.114.044-.229.025-.12.057-.241.038-.12.095-.241.039-.032.083-.077.044-.044.127-.082zm-.076 1.162q-.044 0-.082.038-.032.038-.057.089-.026.044-.038.095-.013.044-.013.063v.09q0 .025-.006.05l-.02.057q-.005.038-.025.12v.052q0 .038.057.076.058.032.102.032h.057q.045 0 .083-.007.044-.006.076-.025.032-.02.032-.057 0-.083-.045-.127-.044-.045-.044-.09v-.278q0-.039-.026-.108-.019-.07-.05-.07zm2.921-1.004q.02 0 .064.013.044.006.095.02l.095.012q.051.006.076.006.013 0 .045.026.032.025.057.063.032.038.05.089.026.044.026.089 0 .025-.076.044-.076.02-.171.038-.096.02-.172.045-.076.025-.076.063v.445q.013.05.032.095l.025.076q.013.038.013.057l-.07.299q0 .019.006.07.013.05.025.108.02.057.026.108.012.05.012.07l.058.317q0 .133-.032.248-.026.114-.026.158v.178q0 .038-.038.07-.031.025-.031.159 0 .025.019.063.019.032.044.064.032.025.064.044.031.02.05.02l.14.037q.178.083.178.267 0 .076-.108.12-.102.051-.21.051h-.348l-.236-.07q-.038 0-.108.02-.07.019-.146.044-.076.025-.14.044-.063.02-.082.02-.038 0-.108-.045-.064-.038-.064-.082 0-.07.07-.121.076-.057.159-.108.089-.057.146-.12.064-.064.045-.16-.051-.095-.026-.14.026-.05.026-.094V91.31l-.07-.172q.012-.07.031-.133l.026-.095q.013-.05.013-.076 0-.127-.02-.197-.019-.076-.05-.12-.032-.033-.07-.039-.038-.013-.083-.013l-.082-.012q-.045-.007-.083-.026-.038-.025-.063-.082-.026-.057-.026-.178 0-.025.006-.05l.013-.039q.013-.019.038-.019h.35q.025 0 .056.006.039.007.07.02l.07.025q.038 0 .095-.007.058-.006.108-.019l.134-.025h.07q.025 0 .063-.025zm-51.55 8.446q.096 0 .172.089.077.089.077.178 0 .07-.102.12-.102.045-.229.09l-.254.075q-.12.038-.158.083-.058.057-.083.133-.025.07-.025.146 0 .076.025.146.025.07.064.127.044.09.101.19.064.096.114.223.051.127.083.286.038.159.038.355 0 .172-.114.35-.114.171-.292.304-.14.077-.216.127-.076.045-.134.07-.057.032-.114.038-.05.013-.133.013h-.229q-.032 0-.082.006-.051.006-.102.02l-.133.025H45.83q-.178 0-.178-.172 0-.044.057-.14.057-.095.146-.184.083-.089.178-.158.095-.07.165-.07.02 0 .064.031l.101.058q.064.031.14.063.076.026.171.026.064 0 .115-.039.057-.038.095-.088.038-.058.057-.115.02-.063.02-.108 0-.108-.083-.26-.083-.159-.184-.318-.102-.165-.185-.31-.082-.147-.082-.242v-.07q.025-.108.076-.222.05-.114.114-.21.064-.095.14-.165.076-.076.165-.095.045-.025.089-.082.05-.058.089-.108.05-.051.089-.096.044-.05.089-.063.05-.045.158-.051.108-.006.16-.006zm1.29.057q.089 0 .216.006.133.006.222.044.095 0 .12.077.033.076.077.171.025.026.057.07.038.044.064.095.031.045.05.096.02.05.02.088l-.051.566q0 .177-.077.393-.076.216-.222.388-.05.05-.076.114-.019.057-.044.12-.02.064-.051.134-.026.063-.076.127-.039.044-.09.108-.044.063-.1.133-.052.064-.115.12-.057.052-.12.077-.096.05-.16.089-.063.038-.114.063-.05.026-.108.032-.05.013-.114.013-.095 0-.178-.044-.083-.045-.146-.115-.057-.076-.095-.165-.038-.095-.038-.19v-.426q0-.038-.026-.07-.025-.031-.025-.177-.006-.185.089-.445t.222-.508q.133-.254.26-.444.134-.197.204-.242.07-.044.114-.095.05-.057.095-.102.045-.044.089-.07.05-.031.127-.031zm.032.724q-.102 0-.21.089-.101.082-.19.197-.09.108-.16.222-.069.108-.094.159l-.064.24q-.025.09-.044.172-.013.083-.013.102v.12q.025.02.044.077.02.057.045.114.032.057.07.102.038.044.108.044.127-.057.235-.114.089-.051.171-.108.089-.057.12-.114.039-.09.083-.21l.096-.229q-.013-.05.025-.101.044-.051.044-.095v-.178q0-.032-.019-.108-.012-.083-.05-.165-.032-.09-.083-.153-.05-.063-.114-.063zm3.124-3.27q.184 0 .229.114.05.114.05.26v.12q0 .09-.057.191-.057.102-.14.19-.082.084-.177.147-.09.057-.153.057-.082 0-.14-.025-.057-.026-.107-.026-.134 0-.28.083-.14.082-.178.267-.05.095-.05.171.006.07-.02.146-.057.134-.12.35-.057.209-.057.393 0 .02-.013.064-.006.044-.019.095-.013.057-.025.12v.197l-.09.515q.013.089-.006.21-.012.114-.044.266-.032.152-.064.33-.031.178-.044.375 0 .038.013.127.019.082.063.082.057 0 .12-.038.07-.038.134-.095t.127-.12l.127-.115q.12-.12.248-.216.127-.101.247-.101l.039.05q0 .07-.039.165-.038.09-.095.185t-.127.177q-.07.083-.133.127-.127.09-.21.216-.076.127-.21.26-.044.096-.139.16-.089.057-.178.107l-.235.096q-.133.063-.228.063-.07 0-.102-.025-.025-.02-.032-.064-.006-.044 0-.114.013-.07.013-.172v-.406q0-.089.032-.178.038-.089.038-.171v-.127q0 .05.013-.045.012-.101.031-.292.02-.197.032-.463.013-.267.013-.56 0-.037.032-.107.038-.076.038-.12v-.23q.038-.183.057-.361l.038-.35q.019-.171.05-.342.032-.178.102-.356.051-.171.165-.33.115-.159.204-.343.044-.083.095-.153.057-.07.14-.114.088-.146.24-.228.16-.09.306-.09zm.806 2.578q.058 0 .083.063.025.064.025.115-.114.4-.203.73l-.076.28-.07.247-.044.197q-.013.076-.013.101 0 .045-.02.146-.012.102 0 .19.02.083.083.115.07.026.235-.082.013-.032.083-.083.07-.05.152-.127.051-.05.064-.101.013-.058.038-.058 0-.05.044-.095.045-.044.045-.082.013-.045.07-.165.057-.121.127-.293.057-.12.108-.26.05-.14.089-.273.038-.133.057-.241.025-.115.025-.184 0-.07.032-.108.032-.038.076-.058.05-.019.102-.019.05-.006.089-.006h.146q.076 0 .12.077.051.076.051.171 0 .02-.019.12-.013.096-.038.223-.02.127-.05.26-.033.134-.064.223-.134.285-.26.571-.128.28-.128.546 0 .032.026.07.012.02.025.032.083 0 .165-.05.089-.052.153-.109.07-.057.12-.108.051-.05.07-.05.02 0 .038.018.026.02.045.038.025.026.044.051 0 .026-.063.127-.058.095-.14.21-.076.108-.153.203-.07.095-.088.114l-.115.083q-.044.032-.082.07-.038.031-.083.082-.038.045-.089.115-.082.082-.171.114-.09.032-.184.032-.045 0-.09-.032-.037-.026-.07-.07-.03-.038-.05-.089-.019-.044-.019-.076v-.178l.05-.152q.02-.064.039-.134t.019-.12q0-.039-.013-.077-.006-.044-.057-.044-.038 0-.089.05-.05.045-.101.109-.051.057-.096.114-.044.057-.07.076-.038.051-.14.159-.1.102-.215.21-.114.101-.222.184-.102.082-.146.082-.038 0-.077-.038-.038-.032-.07-.082-.025-.045-.044-.09-.019-.05-.019-.07v-.177q0-.05.006-.102.007-.044.007-.088.006-.045.006-.077 0-.038.013-.101.019-.07.019-.159 0-.082.019-.171l.038-.134.05-.241q.013-.044.064-.152.057-.108.057-.293 0-.088.007-.12.006-.038-.076-.038-.039 0-.083.012l-.108.038q-.05.032-.102.051-.05.02-.076.02-.038 0-.082-.045-.045-.05-.045-.127 0-.076.038-.114.038-.045.09-.07.056-.032.107-.058.051-.031.07-.076.083-.063.197-.178.114-.12.235-.234.12-.115.228-.197.115-.083.204-.083zm3.144-.985q.057 0 .108.006.057 0 .101.02.051.012.076.05.032.032.032.096 0 .038-.089.146-.089.101-.197.228-.101.12-.19.242-.089.114-.089.177 0 .051.025.077.032.025.07.038l.076.012h.274q.012-.012.038-.031.05-.039.082-.039.095 0 .133.077.045.076.045.171v.172q0 .07-.076.107-.076.039-.172.058-.089.019-.178.025-.082.006-.101.006-.095 0-.108-.006-.013-.013-.05-.013h-.128q-.038 0-.108.038t-.07.09q0 .07-.006.126-.006.051-.013.09l-.012.082q-.02.038-.039.07-.031.063-.031.108v.07q0 .107-.032.234t-.057.153q-.032.032-.051.063-.02.026-.02.146v.127q0 .038.014.096.012.05.044.095.032.044.076.076.045.032.115.032.082 0 .14-.045.025-.019.05-.044.05 0 .076.032.032.025.057.057.026.038.045.089 0 .05-.045.133-.038.083-.095.165-.057.076-.12.14-.064.057-.108.057-.045 0-.09.07-.037.076-.037.108-.02 0-.07.013l-.102.025q-.063.019-.127.032-.082 0-.133-.013-.045-.006-.045-.057-.019-.013-.057-.095-.038-.077-.076-.172-.038-.095-.07-.184-.025-.095-.025-.133v-.299q0-.025.012-.114.02-.095.039-.203.025-.115.038-.223.019-.114.019-.184v-.108q.05-.146.095-.26.032-.102.063-.184.032-.089.032-.102v-.197q0-.082-.05-.101-.039-.032-.083-.064-.045-.031-.045-.082 0-.038.026-.076.032-.045.07-.09.044-.044.082-.088.045-.051.07-.095.044-.096.083-.115.044-.025.095-.063.082-.095.178-.159.095-.063.177-.197.051-.089.077-.178.025-.088.114-.14.082-.025.146-.095.063-.076.102-.076zm.99.915q.108 0 .178.082.07.077.07.165l-.057.178q.038.038.05.108.007.032.007.07 0 .127-.032.235-.025.108-.025.241v.051q0 .032-.007.076-.006.038-.019.077l-.025.095v.07q0 .07-.025.114-.02.044-.045.114-.013.051-.044.108-.026.051-.026.12 0 .026.013.07.013.039.038.083.025.038.057.07.038.026.083.026.05 0 .089-.032.044-.032.07-.07.031-.032.063-.05.038-.026.083-.026h.12q.038 0 .045.038.006.038.006.089 0 .019-.057.076l-.127.127-.14.127-.095.076q-.02.044-.083.152t-.14.223q-.076.108-.165.19-.082.09-.146.09-.044 0-.101-.033-.051-.025-.095-.076-.045-.044-.077-.095-.025-.05-.025-.102v-.101q0-.051-.006-.09-.007-.037-.045-.037v-.12l.051-.179v-.298q0-.095.025-.153.026-.057.026-.146v-.057q0-.044.025-.127.032-.082.064-.178.031-.095.057-.184.032-.095.032-.165 0-.05-.045-.108-.038-.063-.133-.063-.038 0-.07.025-.025.025-.159.025-.012-.006-.025-.031-.026-.038-.026-.096v-.101q0-.057.108-.165.115-.115.254-.222.146-.115.28-.197.133-.09.171-.09zm.02-1.499q.025 0 .063-.006.044-.012.089-.019.044-.013.082-.019.045-.013.064-.013.089.032.114.108.025.077.076.16 0 .05.007.1.012.052.012.096 0 .038-.025.095-.026.051-.026.134-.012.044-.038.108-.019.063-.057.12-.032.051-.082.09-.045.03-.108.018-.09 0-.197-.057-.102-.063-.153-.159-.044-.038-.031-.114.012-.076.012-.133 0-.172.058-.28.057-.108.14-.228zm1.853 1.537q.09 0 .216.006.134.006.223.044.095 0 .12.077.032.076.076.171.026.026.058.07.038.044.063.095.032.045.05.096.02.05.02.088l-.05.566q0 .177-.077.393-.076.216-.222.388-.051.05-.076.114-.02.057-.045.12-.019.064-.05.134-.026.063-.077.127-.038.044-.089.108-.044.063-.101.133-.051.064-.115.12-.057.052-.12.077-.096.05-.16.089-.063.038-.113.063-.051.026-.108.032-.051.013-.115.013-.095 0-.177-.044-.083-.045-.147-.115-.057-.076-.095-.165-.038-.095-.038-.19v-.426q0-.038-.025-.07-.026-.031-.026-.177-.006-.185.09-.445.094-.26.221-.508.134-.254.26-.444.134-.197.204-.242.07-.044.114-.095.051-.057.096-.102.044-.044.088-.07.051-.031.127-.031zm.032.724q-.101 0-.21.089-.1.082-.19.197-.089.108-.159.222-.07.108-.095.159l-.063.24q-.026.09-.045.172-.012.083-.012.102v.12q.025.02.044.077.019.057.044.114.032.057.07.102.038.044.108.044.127-.057.235-.114.09-.051.172-.108.089-.057.12-.114.038-.09.083-.21l.095-.229q-.013-.05.025-.101.045-.051.045-.095v-.178q0-.032-.02-.108-.012-.083-.05-.165-.032-.09-.082-.153-.051-.063-.115-.063zm1.854-.654q.07 0 .108.044.038.045.07.096.02.044.013.12-.006.076-.025.153-.013.076-.032.146-.013.07-.013.095l.02.101.069.127q.025 0 .095-.07.076-.076.172-.184.101-.107.21-.228.107-.127.209-.235.101-.108.184-.178.082-.076.12-.076.051 0 .083.063.038.064.07.134.032.082.057.19.006.09-.013.248-.019.159-.063.35-.038.183-.089.38-.044.19-.089.356-.038.159-.07.266-.025.108-.025.115 0 .025-.006.063-.007.032-.007.064 0 .025.013.044.019.02.07.02l.076-.052q.032-.025.07-.05l.082-.057.197-.127q.096-.064.12-.064.039 0 .083.044.045.039.045.077 0 .012-.045.07-.038.057-.095.12-.057.064-.114.115-.057.05-.083.05 0 .051-.038.096-.031.044-.07.044-.101.108-.171.21-.07.101-.14.19-.07.083-.152.133-.083.051-.21.051-.044 0-.095-.032-.044-.031-.082-.076-.039-.05-.064-.101-.019-.058-.019-.096l-.02-.228q.039-.172.096-.369.064-.196.114-.368.051-.146.083-.28.032-.133.044-.253v-.07q-.025-.178-.127-.178-.152 0-.24.07-.09.063-.147.171-.057.102-.101.223-.039.12-.09.228-.031.038-.044.076-.006.032.007.083-.013.076-.032.152-.013.076-.038.146-.07.203-.134.407-.063.197-.114.368.032.05-.013.057-.038.013-.076.013t-.108-.006q-.07 0-.14-.02-.063-.018-.12-.056-.05-.039-.057-.108-.013-.108.025-.223.038-.12.083-.222.05-.101.095-.178.044-.076.044-.101V100.437l-.031-.109q0-.038.025-.095.025-.064.05-.12l.058-.115q.025-.05.025-.076v-.09l-.019-.247q0-.038-.012-.076-.007-.044-.058-.044-.038 0-.088.019-.045.019-.096.044-.044.02-.089.038-.038.02-.063.02h-.05q-.045-.026-.026-.096.025-.076.025-.114.159-.223.305-.388.152-.171.362-.304.044-.026.12-.064.077-.038.147-.038zm3.461-.127q.095 0 .172.089.076.089.076.178 0 .07-.102.12-.101.045-.228.09l-.254.075q-.121.038-.16.083-.056.057-.082.133-.025.07-.025.146 0 .076.025.146.026.07.064.127.044.09.101.19.064.096.115.223.05.127.082.286.038.158.038.355 0 .172-.114.35-.114.171-.292.304-.14.077-.216.127-.076.045-.133.07-.057.032-.115.038-.05.013-.133.013h-.229q-.031 0-.082.006-.05.006-.102.02l-.133.025H62.436q-.178 0-.178-.172 0-.044.058-.14.057-.095.146-.184.082-.089.177-.158.096-.07.165-.07.02 0 .064.031l.102.058q.063.031.14.063.075.026.17.026.064 0 .115-.039.057-.038.095-.088.038-.058.057-.115.02-.063.02-.108 0-.108-.083-.26-.083-.159-.184-.318-.102-.165-.184-.31-.083-.147-.083-.242v-.07q.025-.108.076-.222t.115-.21q.063-.095.14-.165.075-.076.164-.095.045-.025.09-.083.05-.057.088-.107.051-.051.09-.096.044-.05.088-.063.05-.045.159-.051.108-.006.158-.006zm3.277-.896q.057 0 .108.006.057 0 .101.02.051.012.077.05.031.032.031.096 0 .038-.089.146-.089.101-.196.228-.102.12-.191.242-.089.114-.089.177 0 .051.026.077.031.025.07.038l.076.012h.273q.012-.012.038-.031.05-.039.082-.039.096 0 .134.077.044.076.044.171v.172q0 .07-.076.107-.076.039-.172.058-.088.019-.177.025-.083.006-.102.006-.095 0-.108-.006-.013-.013-.05-.013H67.3q-.038 0-.108.038t-.07.09q0 .07-.006.126-.006.051-.013.09l-.012.082-.038.07q-.032.063-.032.108v.07q0 .107-.032.234t-.057.153q-.032.032-.05.063-.02.026-.02.146v.127q0 .038.013.096.013.05.044.095.032.044.077.076.044.032.114.032.082 0 .14-.045.025-.019.05-.044.051 0 .077.032.031.025.057.057.025.038.044.089 0 .05-.044.133-.038.083-.096.165-.057.076-.12.14-.064.057-.108.057-.045 0-.09.07-.037.076-.037.108-.02 0-.07.013l-.102.025q-.063.019-.127.032-.082 0-.133-.013-.044-.006-.044-.057-.02-.013-.058-.095-.038-.077-.076-.172-.038-.095-.07-.184-.025-.095-.025-.133v-.299q0-.025.013-.114.019-.095.038-.203.025-.115.038-.223.019-.114.019-.184v-.108q.05-.146.095-.26.032-.102.064-.184.031-.089.031-.102v-.197q0-.082-.05-.101-.038-.032-.083-.064-.044-.031-.044-.082 0-.038.025-.076.032-.045.07-.09.044-.044.082-.088.045-.051.07-.095.045-.096.083-.115.044-.025.095-.063.083-.095.178-.159.095-.063.178-.197.05-.089.076-.178.025-.088.114-.14.083-.025.146-.095.064-.076.102-.076zm1.327.953q.089 0 .216.006.133.006.222.044.095 0 .12.077.032.076.077.171.025.026.057.07.038.044.064.095.031.045.05.096.02.05.02.088l-.051.566q0 .177-.077.393-.076.216-.222.388-.05.05-.076.114l-.044.12q-.02.064-.051.134-.026.063-.076.127-.039.044-.09.108-.044.063-.101.133-.05.064-.114.12-.057.052-.12.077-.096.05-.16.089-.063.038-.114.063-.05.026-.108.032-.05.013-.114.013-.095 0-.178-.044-.083-.045-.146-.115-.057-.076-.095-.165-.038-.095-.038-.19v-.426q0-.038-.026-.07-.025-.031-.025-.177-.007-.185.089-.445.095-.26.222-.508.133-.254.26-.444.134-.197.203-.242.07-.044.115-.095.05-.057.095-.102.044-.044.089-.07.05-.031.127-.031zm.032.724q-.102 0-.21.089-.101.082-.19.197-.09.108-.16.222-.069.108-.094.159l-.064.24q-.025.09-.044.172-.013.083-.013.102v.12q.025.02.044.077.02.057.045.114.032.057.07.102.038.044.108.044.127-.057.235-.114.089-.051.171-.108.089-.057.12-.114.039-.09.083-.21l.096-.229q-.013-.05.025-.101.044-.051.044-.095v-.178q0-.032-.019-.108-.012-.083-.05-.165-.032-.09-.083-.153-.05-.063-.114-.063zm4.026-3.321h.171q.05 0 .095.025.051.026.102.026l.178-.051h.101q.045 0 .095.032.058.025.102.07.05.044.076.095.032.044.032.082 0 .096-.025.203-.026.108-.09.216-.063.102-.164.184-.102.083-.254.121H73.3q-.07 0-.159.038-.082.038-.159.102-.076.057-.127.133-.05.07-.05.134-.051.044-.07.146-.013.095-.057.171-.051.057-.064.159-.006.095-.006.146l-.07.228q0 .09-.038.178-.038.09-.089.19-.044.102-.083.223-.038.114-.038.254v.127q0 .032.026.044.012.006.032.006.044 0 .088-.076.045-.076.115-.171.07-.096.171-.172.102-.076.26-.076l.14-.05q.146 0 .222.088.077.083.077.229v.05l-.051.128.025.101q.013.045.02.095.006.045.006.083 0 .07-.02.089-.012.032-.025.057-.006.019-.006.032 0 .025.006.044.006.013.013.038.006.026 0 .064 0 .038-.02.101v.19q0 .02-.037.083l-.076.134-.096.165q-.05.089-.076.171l-.07.28q-.114.165-.216.298l-.171.222q-.076.108-.108.134-.07.044-.108.082-.038.038-.076.064-.038.025-.095.038-.058.013-.178.013l-.178.05q-.05 0-.07-.031-.019-.026-.025-.077-.007-.044-.013-.101-.006-.057-.032-.108 0-.032-.019-.064-.019-.038-.032-.076-.044-.05-.088-.095-.039-.051-.039-.12 0-.052.032-.134.02-.045.038-.096v-.19l.057-.584v-.127l.121-.597V99.147q0-.052.032-.217.038-.165.038-.387v-.178l.178-.724v-.05q0-.045.012-.14l.039-.203.057-.254.05-.178q.013-.095.051-.165l.127-.21zm-.356 3.41q-.089 0-.184.133-.09.133-.165.305-.077.171-.127.336-.051.16-.051.21v.248q0 .063.013.114.012.044.025.082.013.032.044.032h.077q.089-.032.19-.114.108-.083.197-.184.089-.102.146-.21.064-.108.064-.197V99.782l-.032-.127.032-.102q0-.228-.23-.228zm1.886-.851q.07-.013.089.019.025.032.108.07.07.038.12.089.051.05.051.12l-.012.07q-.013.083.012.16 0 .056-.025.139-.02.076-.006.127.012.025.038.05l.038.039q.025.012.044 0 .064-.013.134-.121.076-.108.146-.241.07-.134.14-.26.07-.128.126-.172l.197-.05q.038-.014.083-.007.05.006.076.006.12.07.152.197.032.12.045.19.006.09-.064.235-.063.146-.165.242-.044.025-.082.044l-.077.026h-.05l-.039-.02q-.031-.012-.063-.012-.025-.006-.064-.006-.082 0-.158.063-.07.064-.14.134-.108.133-.171.304-.058.165-.058.312-.044.044-.108.114-.057.063-.088.152-.039.09-.039.184.007.096-.031.185.006.076 0 .177-.007.096-.026.204-.012.107-.038.21-.025.094-.057.17-.044.032-.108.058-.063.025-.133.038-.076.019-.165.025-.032 0-.083-.05-.025-.026-.044-.051l-.09-.178q-.006-.045.013-.153.02-.108.045-.216l.044-.203q.026-.089.026-.101.14-.21.184-.439.044-.234.095-.463l-.05-.42q-.032-.082-.083-.082-.045 0-.095.013-.102.019-.146.057-.045.032-.077.07-.031.038-.07.076-.038.032-.133.045-.05 0-.063-.064-.013-.063-.026-.114-.012-.057.02-.108.031-.057.082-.102.057-.05.127-.095.07-.05.127-.102.076-.082.133-.177.057-.102.114-.184.058-.09.127-.147.077-.063.191-.076zm2.267 0q.108 0 .178.082.07.077.07.165l-.058.178q.038.038.051.108.006.032.006.07 0 .127-.031.235-.026.108-.026.241v.051q0 .032-.006.076-.006.038-.019.077-.013.044-.025.095v.07q0 .07-.026.114-.019.044-.044.114-.013.051-.045.108-.025.051-.025.12 0 .026.013.07.012.039.038.083.025.038.057.07.038.026.082.026.051 0 .09-.032.044-.032.07-.07.03-.032.063-.05.038-.026.082-.026h.12q.039 0 .045.038.007.038.007.089 0 .019-.058.076l-.127.127-.14.127-.095.076q-.019.044-.082.152-.064.108-.14.223-.076.108-.165.19-.082.09-.146.09-.044 0-.102-.033-.05-.025-.095-.076-.044-.044-.076-.095-.025-.05-.025-.102v-.101q0-.051-.007-.09-.006-.037-.044-.037v-.12l.05-.179v-.298q0-.095.026-.153.025-.057.025-.146v-.057q0-.044.026-.127.032-.082.063-.178.032-.095.058-.184.031-.095.031-.165 0-.05-.044-.108-.038-.063-.134-.063-.038 0-.07.025-.025.025-.158.025-.013-.006-.026-.031-.025-.038-.025-.096v-.101q0-.057.108-.165.114-.115.254-.222.146-.115.28-.197.133-.09.17-.09zm.019-1.499q.025 0 .063-.006.045-.012.09-.019.044-.013.082-.019.044-.013.063-.013.09.032.115.108.025.077.076.16 0 .05.006.1.013.052.013.096 0 .038-.026.095-.025.051-.025.134-.013.044-.038.108-.02.063-.057.12-.032.051-.083.09-.044.03-.108.018-.089 0-.197-.057-.101-.063-.152-.159-.044-.038-.032-.114.013-.076.013-.133 0-.172.057-.28.057-.108.14-.228zm1.657 1.607q.07 0 .108.044.038.045.07.096.02.044.013.12-.007.076-.026.153-.012.076-.031.146-.013.07-.013.095l.019.101.07.127q.025 0 .095-.07.076-.076.172-.184.101-.107.21-.228.107-.127.209-.235.101-.108.184-.178.082-.076.12-.076.051 0 .083.063.038.064.07.134.032.082.057.19.006.09-.013.248-.019.159-.063.35-.038.183-.09.38-.044.19-.088.356-.038.159-.07.266-.025.108-.025.115 0 .025-.007.063-.006.032-.006.064 0 .025.013.044.019.02.07.02l.076-.052q.032-.025.07-.05l.082-.057.197-.127q.095-.064.12-.064.039 0 .083.044.045.039.045.077 0 .012-.045.07-.038.057-.095.12-.057.064-.114.115-.057.05-.083.05 0 .051-.038.096-.032.044-.07.044-.101.108-.171.21-.07.101-.14.19-.07.083-.152.133-.083.051-.21.051-.044 0-.095-.032-.045-.031-.083-.076-.038-.05-.063-.101-.02-.058-.02-.096l-.018-.228q.038-.172.095-.369.063-.196.114-.368.051-.146.083-.28.032-.133.044-.253v-.07q-.025-.178-.127-.178-.152 0-.241.07-.089.063-.146.171-.057.102-.102.223-.038.12-.089.228-.031.038-.044.076-.006.032.006.083-.012.076-.032.152-.012.076-.038.146-.07.203-.133.407-.063.197-.114.368.031.05-.013.057-.038.013-.076.013t-.108-.006q-.07 0-.14-.02-.063-.018-.12-.056-.051-.039-.058-.108-.012-.108.026-.223.038-.12.082-.222.051-.101.096-.178.044-.076.044-.101V100.437l-.032-.109q0-.038.026-.095.025-.064.05-.12l.058-.115q.025-.05.025-.076v-.09L78 99.586q0-.038-.013-.076-.006-.044-.057-.044-.038 0-.089.019-.044.019-.095.044-.044.02-.089.038-.038.02-.063.02h-.051q-.045-.026-.026-.096.026-.076.026-.114.159-.223.305-.388.152-.171.362-.304.044-.026.12-.064.076-.038.146-.038zm2.966-.02q.114 0 .19.058.083.057.134.14.057.082.076.177.025.09.025.153v.235q0 .07-.038.254-.038.178-.089.374l-.082.362q-.038.166-.038.21v.12q0 .039-.051.121-.045.076-.102.197-.05.114-.101.273-.045.159-.045.362v.356q.05.089.064.19.019.102.114.229.05.095.063.216.02.12.058.21.019.114.025.177.013.064.019.114.006.051.006.102v.381q-.019.095-.07.159-.05.07-.114.127-.057.057-.12.101-.064.051-.102.096-.089.089-.203.165-.108.076-.146.076l-.178.057h-.12q-.058 0-.16.026-.101.025-.146.025h-.368q-.089 0-.159-.038t-.127-.095q-.057-.051-.101-.115l-.09-.101q-.037-.02-.082-.07-.044-.045-.082-.102-.038-.05-.057-.108-.026-.057-.026-.095v-.178q0-.108.032-.184.025-.076.076-.184.026-.083.114-.203.09-.115.134-.204.025-.031.07-.057.044-.019.089-.044.044-.026.088-.057.045-.026.07-.07.09-.05.146-.095.057-.045.153-.083.044 0 .089-.032.05-.025.095-.07.044-.038.082-.082.045-.038.083-.064.057-.038.089-.057.038-.013.038-.063.05-.045.12-.09.077-.037.128-.088.031-.114.057-.222.025-.09.044-.178.02-.095.02-.146 0-.083-.077-.096-.076-.012-.171-.012h-.051q-.026 0-.09-.038-.056-.038-.12-.09l-.114-.1q-.044-.052-.044-.07v-.128q0-.127-.032-.19-.026-.07-.026-.159 0-.133.064-.33.07-.203.152-.4l.165-.362q.077-.165.096-.235.044-.038.108-.057.07-.026.07-.121.095-.076.215-.178.127-.101.26-.101zm-.26.864q-.07 0-.121.077-.045.07-.083.165-.032.095-.05.184-.013.089-.013.12v.286q.031.102.057.178.025.07.057.12.032.052.063.052l.09-.083q.05-.178.095-.33.031-.127.063-.248.032-.127.032-.165 0-.032-.006-.089 0-.063-.02-.12-.019-.058-.057-.102-.038-.045-.108-.045zm-.394 2.947q-.09 0-.165.05-.077.058-.166.147 0 .025-.076.089-.07.07-.158.171-.083.108-.153.254-.076.146-.076.33 0 .07.089.127.082.057.19.102.108.044.21.07.108.025.146.025.063 0 .14-.05.082-.045.146-.121.07-.077.114-.165.044-.09.044-.178v-.248q0-.025-.012-.127-.007-.095-.038-.203-.032-.102-.09-.19-.05-.083-.145-.083zm4.146-3.81q.115 0 .19.057.083.057.134.14.057.082.076.177.026.09.026.153v.235q0 .07-.038.254-.039.178-.09.374l-.082.362q-.038.166-.038.21v.12q0 .039-.05.121-.045.076-.102.197-.051.114-.102.273-.044.159-.044.362v.356q.05.089.063.19.02.102.114.229.051.095.064.216.019.12.057.21.02.114.025.177.013.064.02.114.006.051.006.102v.381q-.02.095-.07.159-.05.07-.114.127-.058.057-.121.101-.064.051-.102.096-.089.089-.203.165-.108.076-.146.076l-.178.057h-.12q-.057 0-.16.026-.1.025-.145.025h-.368q-.09 0-.16-.038-.069-.038-.126-.095-.057-.051-.102-.115l-.089-.101q-.038-.02-.082-.07-.045-.045-.083-.102-.038-.05-.057-.108-.025-.057-.025-.095v-.178q0-.108.031-.184.026-.076.077-.184.025-.083.114-.203.089-.115.133-.204.026-.031.07-.057.045-.019.089-.044.044-.026.089-.057.044-.026.07-.07.089-.05.146-.095.057-.045.152-.083.045 0 .09-.032.05-.025.094-.07.045-.038.083-.082.044-.038.082-.064.058-.038.09-.057.037-.013.037-.063.051-.045.121-.09.076-.037.127-.088.032-.114.057-.222.026-.09.045-.178.019-.095.019-.146 0-.083-.076-.096-.077-.012-.172-.012h-.05q-.026 0-.09-.038-.057-.038-.12-.09l-.115-.1q-.044-.052-.044-.07v-.128q0-.127-.032-.19-.025-.07-.025-.159 0-.133.063-.33.07-.203.153-.4l.165-.362q.076-.165.095-.235.045-.038.108-.057.07-.026.07-.121.095-.076.216-.178.127-.101.26-.101zm-.26.863q-.07 0-.12.077-.045.07-.083.165-.032.095-.051.184-.013.089-.013.12v.286l.057.178q.026.07.057.12.032.052.064.052l.089-.083q.05-.178.095-.33l.064-.248q.031-.127.031-.165 0-.032-.006-.089 0-.063-.019-.12-.019-.058-.057-.102-.038-.045-.108-.045zm-.394 2.947q-.089 0-.165.05-.076.058-.165.147 0 .025-.076.089-.07.07-.159.171-.083.108-.152.254-.077.146-.077.33 0 .07.09.127.082.057.19.102.108.044.21.07.107.025.145.025.064 0 .14-.05.083-.045.146-.121.07-.077.114-.165.045-.09.045-.178v-.248q0-.025-.013-.127-.006-.095-.038-.203-.032-.102-.089-.19-.05-.083-.146-.083zm2.477-3.861q.089 0 .216.006.133.006.222.045.095 0 .12.076.032.076.077.171.025.026.057.07.038.044.063.095.032.045.051.096.02.05.02.088l-.052.566q0 .177-.076.393-.076.216-.222.388-.05.05-.076.114-.02.057-.045.12-.019.064-.05.134-.026.063-.077.127-.038.044-.089.108-.044.063-.101.133-.051.064-.115.12-.057.052-.12.077-.095.05-.159.089-.063.038-.114.064-.051.025-.108.031-.051.013-.115.013-.095 0-.177-.044-.083-.045-.146-.115-.058-.076-.096-.165-.038-.095-.038-.19v-.426q0-.038-.025-.07-.026-.031-.026-.177-.006-.185.09-.445.095-.26.222-.508.133-.254.26-.444.133-.197.203-.242.07-.044.114-.095.051-.057.096-.102.044-.044.089-.07.05-.031.127-.031zm.031.724q-.101 0-.21.089-.1.082-.19.197-.089.108-.158.222-.07.108-.096.159l-.063.241q-.026.089-.045.171-.012.083-.012.102v.12q.025.02.044.077.02.057.045.114.031.057.07.102.038.044.107.044.127-.057.235-.114.09-.05.172-.108.089-.057.12-.114.039-.09.083-.21l.095-.229q-.012-.05.026-.101.044-.05.044-.095v-.178q0-.032-.019-.108-.013-.083-.05-.165-.033-.09-.083-.153-.051-.063-.115-.063zm2.051-.724q.09 0 .216.006.134.006.223.045.095 0 .12.076.032.076.076.171.026.026.058.07.038.044.063.095.032.045.05.096.02.05.02.088l-.05.566q0 .177-.077.393-.076.216-.222.388-.051.05-.077.114-.019.057-.044.12-.019.064-.05.134-.026.063-.077.127-.038.044-.089.108-.044.063-.101.133-.051.064-.115.12-.057.052-.12.077-.096.05-.16.089-.063.038-.113.064-.051.025-.108.031-.051.013-.115.013-.095 0-.178-.044-.082-.045-.146-.115-.057-.076-.095-.165-.038-.095-.038-.19v-.426q0-.038-.025-.07-.026-.031-.026-.177-.006-.185.09-.445.094-.26.221-.508.134-.254.26-.444.134-.197.204-.242.07-.044.114-.095.051-.057.096-.102.044-.044.088-.07.051-.031.127-.031zm.032.724q-.101 0-.21.089-.101.082-.19.197-.089.108-.159.222-.07.108-.095.159l-.063.241q-.026.089-.045.171-.013.083-.013.102v.12q.026.02.045.077.019.057.044.114.032.057.07.102.038.044.108.044.127-.057.235-.114.089-.05.172-.108.088-.057.12-.114.038-.09.083-.21l.095-.229q-.013-.05.025-.101.045-.05.045-.095v-.178q0-.032-.02-.108-.012-.083-.05-.165-.032-.09-.083-.153-.05-.063-.114-.063zm4.007-3.27h.178q.025 0 .05.038.026.038.039.089.019.057.031.12v.178q0 .222-.152.375-.152.152-.394.152-.012-.013-.031-.025-.038-.026-.07-.026-.045 0-.09.013-.044.013-.069.038-.038.038-.089.14-.044.101-.089.216-.038.108-.07.21-.031.095-.038.126l-.031.16q-.039.107-.083.19-.038.082-.07.171-.025.089-.044.19-.02.102-.02.242-.025.044-.063.184-.032.133-.063.286-.026.146-.045.273-.019.12-.019.14v.12q0 .032-.013.102-.006.07-.019.146-.006.076-.019.146-.006.063-.006.082-.019.07-.025.127 0 .058.006.096.006.05.019.082 0 .02-.013.07-.006.05-.006.108 0 .057.013.102.012.038.063.038.083 0 .165-.058.09-.057.159-.127.07-.076.12-.133.058-.057.083-.057.038 0 .07.038.038.038.038.089-.063.07-.108.14-.044.063-.076.133-.032.063-.032.133-.025.07-.076.14-.05.064-.114.14-.064.076-.127.158-.057.077-.102.16 0 .018-.032.05-.025.025-.063.05-.038.026-.083.045-.038.026-.057.032-.146.108-.247.159-.102.05-.102-.02-.064.033-.089-.018-.025-.045-.038-.14-.006-.089 0-.203.006-.12.006-.222.007-.102 0-.172-.006-.07-.038-.07-.05 0-.133.07-.076.064-.165.159-.057.05-.134.146-.076.095-.158.19-.077.09-.153.16-.07.069-.108.069-.063 0-.127-.038-.063-.032-.114-.083-.044-.05-.076-.114-.032-.07-.032-.14v-.387q0-.019.013-.089.012-.076.031-.165l.045-.222q0-.026.006-.07l.026-.083q.019-.044.038-.095v-.05l.025-.128q.013-.05.02-.101.005-.051.005-.07.039-.095.051-.178.02-.082.076-.178.02-.14.096-.241.082-.102.19-.184.108-.083.216-.153.114-.076.203-.165.038 0 .07-.006.064-.012.108-.063l.178-.032q.07-.013.108-.038.044-.032.057-.076.02-.045.025-.134l.051-.177.057-.388.051-.247q0-.02.013-.09.013-.07.032-.145.019-.077.038-.14.019-.07.025-.083.013-.031.013-.05v-.058q0-.025.019-.076l.044-.114q.026-.064.057-.12l.058-.115q.063-.082.14-.19.076-.108.158-.204.083-.095.172-.165.088-.076.184-.095h.05q.096 0 .115-.025.025-.026.063-.026zm-1.854 3.25q-.127 0-.248.083-.12.083-.216.204-.089.12-.146.247-.057.127-.057.222 0 .026-.019.14-.013.108-.006.222.012.108.07.185.057.076.203.038.12-.032.228-.16.115-.126.19-.298.083-.171.122-.355.044-.19.038-.35 0-.05-.02-.088-.012-.032-.05-.057-.032-.032-.09-.032zm4.413-1.656q.057 0 .108.006.057 0 .102.019.05.012.076.05.032.032.032.096 0 .038-.09.146l-.196.228q-.102.12-.19.242-.09.114-.09.177 0 .051.026.077.032.025.07.038l.076.012h.273q.013-.012.038-.031.05-.039.083-.039.095 0 .133.077.044.076.044.171v.172q0 .07-.076.108-.076.038-.171.057-.09.019-.178.025-.083.006-.102.006-.095 0-.108-.006-.012-.013-.05-.013h-.128q-.038 0-.107.038-.07.039-.07.09 0 .07-.006.126-.006.051-.013.09l-.013.082q-.019.038-.038.07-.032.063-.032.108v.07q0 .107-.031.234-.032.127-.058.153-.031.032-.05.063-.02.026-.02.146v.127q0 .038.013.096.013.05.045.095.031.044.076.076.044.032.114.032.083 0 .14-.045.025-.019.05-.044.052 0 .077.032.032.025.057.057.025.038.044.089 0 .05-.044.133-.038.083-.095.165-.057.076-.12.14-.064.057-.109.057-.044 0-.089.07-.038.076-.038.108-.019 0-.07.013l-.101.025q-.064.02-.127.032-.083 0-.134-.013-.044-.006-.044-.057-.02-.013-.057-.095-.038-.077-.076-.172-.038-.095-.07-.184-.026-.095-.026-.133v-.299q0-.025.013-.114.02-.095.038-.203.026-.115.038-.222.02-.115.02-.185v-.108q.05-.146.095-.26.031-.102.063-.184.032-.089.032-.102v-.197q0-.082-.051-.101-.038-.032-.083-.064-.044-.031-.044-.082 0-.038.025-.076.032-.045.07-.09.045-.044.083-.088.044-.05.07-.095.044-.096.082-.115.045-.025.095-.063.083-.095.178-.159.096-.063.178-.197.05-.089.076-.178.026-.088.115-.14.082-.025.146-.095.063-.076.101-.076zm1.327.952q.09 0 .216.006.133.006.222.045.096 0 .121.076.032.076.076.171.026.026.057.07.039.044.064.095.032.045.05.096.02.05.02.088l-.051.566q0 .177-.076.393-.076.216-.223.388-.05.05-.076.114-.019.057-.044.12-.02.064-.05.134-.026.063-.077.127-.038.044-.089.108-.044.063-.102.133-.05.064-.114.12-.057.052-.12.077-.096.05-.16.089-.063.038-.114.064-.05.025-.108.031-.05.013-.114.013-.095 0-.178-.044-.082-.045-.146-.115-.057-.076-.095-.165-.038-.095-.038-.19v-.426q0-.038-.025-.07-.026-.031-.026-.177-.006-.185.09-.445.094-.26.221-.508.134-.254.26-.444.134-.197.204-.242.07-.044.114-.095.051-.057.095-.102.045-.044.09-.07.05-.031.126-.031zm.032.724q-.102 0-.21.089-.101.082-.19.197-.089.108-.159.222-.07.108-.095.159l-.064.241q-.025.089-.044.171-.013.083-.013.102v.12q.026.02.045.077.019.057.044.114.032.057.07.102.038.044.108.044.127-.057.235-.114.089-.05.171-.108.09-.057.121-.114.038-.09.083-.21l.095-.229q-.013-.05.025-.101.045-.05.045-.095v-.178q0-.032-.02-.108-.012-.083-.05-.165-.032-.09-.083-.153-.05-.063-.114-.063zm4.039-1.676q.057 0 .108.006.057 0 .101.019.051.012.076.05.032.032.032.096 0 .038-.089.146-.089.101-.197.228-.101.12-.19.242-.089.114-.089.177 0 .051.025.077.032.025.07.038l.077.012h.273q.012-.012.038-.031.05-.039.082-.039.095 0 .134.077.044.076.044.171v.172q0 .07-.076.108-.076.038-.172.057-.089.019-.177.025-.083.006-.102.006-.095 0-.108-.006-.013-.013-.05-.013h-.128q-.038 0-.108.038-.07.039-.07.09 0 .07-.006.126l-.012.09-.013.082-.038.07q-.032.063-.032.108v.07q0 .107-.032.234t-.057.153q-.032.032-.05.063-.02.026-.02.146v.127q0 .038.013.096.013.05.044.095.032.044.077.076.044.032.114.032.082 0 .14-.045.025-.019.05-.044.051 0 .077.032.031.025.057.057.025.038.044.089 0 .05-.044.133-.038.083-.096.165-.057.076-.12.14-.064.057-.108.057-.045 0-.089.07-.038.076-.038.108-.02 0-.07.013l-.102.025q-.063.02-.127.032-.082 0-.133-.013-.044-.006-.044-.057-.02-.013-.057-.095-.039-.077-.077-.172-.038-.095-.07-.184-.025-.095-.025-.133v-.299q0-.025.013-.114.019-.095.038-.203.025-.115.038-.222.019-.115.019-.185v-.108q.05-.146.095-.26.032-.102.064-.184.032-.089.032-.102v-.197q0-.082-.051-.101-.038-.032-.083-.064-.044-.031-.044-.082 0-.038.025-.076.032-.045.07-.09.044-.044.083-.088.044-.05.07-.095.044-.096.082-.115.044-.025.095-.063.083-.095.178-.159.095-.063.178-.197.05-.089.076-.178.025-.088.114-.14.083-.025.146-.095.064-.076.102-.076zm2.05-1.766q.134 0 .223.07t.146.165q.057.096.082.197.026.102.026.165 0 .051-.076.14-.077.089-.165.178-.108.108-.235.228-.045.045-.096.051-.05.006-.101.006-.07 0-.127.013-.051.006-.102.057-.133.076-.21.19-.076.115-.126.248 0 .025-.02.089-.012.063-.037.133l-.039.134q-.012.063-.012.089l-.07.279-.038.14-.057.273q-.032.152-.057.298-.026.146-.026.21 0 .025.006.05.013.051.051.051.076 0 .184-.095t.241-.184l.108-.102q.07-.063.146-.12.077-.064.146-.102.077-.044.127-.044h.108q.121 0 .185.108.063.107.088.24.032.134.039.255l.006.133-.02.216q0 .038.006.159.013.12.013.21 0 .018-.013.05-.006.026-.019.057l-.025.07v.12q0 .083-.019.115-.013.026-.013.114-.031.102-.07.146-.044.039-.07.096-.018.057-.057.095-.025.095-.082.222t-.146.222q-.044.045-.083.127-.038.077-.082.16-.038.075-.102.133-.057.057-.14.057H101.984q-.019 0-.07-.006-.05 0-.101-.02-.051-.012-.09-.05-.037-.032-.037-.102 0-.044.032-.108.038-.063.076-.12.044-.064.089-.115l.063-.082q.095-.076.178-.159.082-.082.127-.12.127-.096.152-.185.032-.095.077-.19.088-.172.14-.28.05-.114.05-.247v-.248q0-.025-.013-.076-.012-.051-.044-.095-.032-.051-.083-.09-.044-.037-.108-.037-.038 0-.063.038-.019.031-.108.082-.229.172-.362.375-.133.197-.241.419-.038.133-.064.286l-.05.298-.051.286q-.026.14-.064.26-.05.083-.127.127-.07.051-.12.051-.096 0-.147-.05-.044-.052-.07-.121-.025-.07-.031-.14v-.711q0-.026.038-.172t.082-.324q.051-.184.09-.355.037-.172.037-.26.02-.051.026-.096.012-.044.025-.082.013-.045.02-.09v-.215q.005-.02.037-.032 0-.013.006-.025.006-.013.006-.026v-.127q0-.019.02-.082.018-.07.044-.153.025-.082.044-.165.02-.082.02-.127v-.387q0-.184.044-.33.05-.146.076-.235l.019-.178q.006-.044.044-.133.045-.096.095-.19.051-.096.102-.179.05-.082.076-.101.038-.02.051-.07.02-.051.032-.108.019-.057.044-.108.032-.057.102-.083h.038q.025-.006.05-.019.013-.012.039-.012h.05q.051-.051.147-.108.101-.058.203-.108.114-.057.254-.102zm1.798 2.718q.133 0 .222.05.095.045.152.128.058.082.083.19t.019.229q0 .171-.127.28-.127.1-.26.177-.121.083-.26.146-.134.064-.255.14-.114.076-.197.178-.076.101-.082.26v.267q-.013.108.044.216.058.101.146.101.006.006.051-.019t.095-.057q.058-.038.108-.076.058-.038.083-.057l.146-.07q.057-.032.082-.02.045 0 .077.014.031.012.031.095-.012.14-.12.273-.108.127-.235.241-.127.108-.248.19-.12.083-.159.121-.107.095-.203.102-.089.006-.184.006-.057-.006-.12-.051-.058-.044-.108-.102-.045-.063-.07-.127-.026-.063-.02-.108v-.107q0-.045-.025-.096-.012-.025-.025-.044l.019-.127v-.102q0-.025.013-.133.012-.114.031-.241.02-.134.032-.248.02-.12.025-.159.026-.019.026-.038t-.006-.038q-.006-.02-.006-.044 0-.032.025-.07 0-.077.032-.16l.038-.088.089-.21q.013-.14.133-.285.121-.153.28-.273.165-.121.336-.19.172-.077.292-.064zm-.286.476q-.032 0-.064.051-.031.044-.063.102-.032.07-.064.146-.006.032-.019.076-.012.038-.019.076-.006.032.006.057.013.02.051.02.032.005.095-.013.064-.02.127-.057.07-.039.121-.09.057-.057.064-.12v-.108q0-.032-.02-.057-.018-.025-.044-.038-.025-.02-.063-.032zm-57.347 8.185q.006.064.013.102l.013.064q.006.031.012.076.007.044.013.127 0 .12.006.197.013.076.064.158.012.051.006.108l-.013.096q-.006.044 0 .07.013.025.058.025.095 0 .127-.038.031-.045.07-.09.07-.088.158-.209.095-.12.127-.21.02-.095.02-.145 0-.057-.007-.095-.006-.045-.013-.083 0-.044.013-.102v-.019q0-.044-.006-.063 0-.02-.013-.026-.006-.006-.025-.006-.02-.006-.058-.025h-.088q-.051 0-.083-.044-.02-.02-.025-.045-.013-.044.019-.089.031-.044.082-.07.051-.031.108-.05.064-.02.108-.02.045-.057.076-.076.038-.019.064-.025.032-.013.057-.019.032-.006.07-.025.038-.051.127-.096.089-.044.171-.044.12.032.115.12 0 .083-.045.216v.07q0 .038.006.083.007.044.051.044.045-.006.14-.089.102-.082.216-.177.114-.096.222-.172.108-.076.178-.076.095 0 .184.032.095.031.178.082.082.045.146.115.063.063.095.127.064.088.076.215.02.121-.006.242l-.216.635q-.025.108-.12.203-.09.095-.16.203-.082.12-.183.254-.102.127-.223.254-.057.07-.095.102l-.076.063q-.032.026-.076.07-.045.038-.108.12-.032.052-.102.115-.063.064-.14.12-.076.058-.158.096-.083.038-.146.038-.134 0-.223-.044-.088-.038-.076-.127.026-.096.026-.14.006-.05.006-.089l.038-.108q-.013-.133-.038-.235-.025-.108 0-.241.032-.146.006-.241-.019-.096-.057-.096-.108 0-.21.14-.101.133-.196.267-.051.082-.051.133 0 .05-.057.133-.051.108-.108.172-.05.063-.064.146-.031.044-.063.101-.026.051-.057.096-.032.044-.076.07-.045.031-.108.031-.045 0-.102-.012-.05-.013-.095-.038-.038-.026-.064-.058-.025-.038-.019-.088.038-.14.057-.242.026-.101.013-.286 0-.12-.025-.228-.02-.114.006-.248l.019-.21q-.006-.082-.013-.12 0-.044-.006-.076 0-.038-.006-.07 0-.038-.007-.108l-.019-.064q0-.031-.006-.044-.006-.019-.013-.032v-.178q0-.082-.063-.12-.057-.038-.146-.038-.038 0-.064.019-.019.012-.044.038-.026.019-.064.038-.038.013-.114.013-.045 0-.076-.032-.02-.02-.032-.038 0-.083.063-.159.064-.076.115-.076.095-.089.152-.146.057-.057.146-.095.02-.026.083-.096.07-.07.146-.133.082-.07.159-.12.082-.058.127-.058.095 0 .133.07.044.064.057.159.013.089.006.184v.133zm1.321.318q-.02.089-.013.152.007.064.02.127.018.064.031.14.02.076.02.178-.014.05-.014.14 0 .082.013.165.013.082.045.146.031.063.076.063.076 0 .165-.063.095-.064.178-.153.082-.089.14-.184.063-.095.082-.165.025-.133.038-.222.013-.095 0-.172-.006-.082-.044-.158-.039-.083-.102-.19-.025-.052-.12-.084-.09-.038-.178-.038-.039 0-.096.032t-.108.083q-.05.044-.089.101-.038.057-.044.102zm2.737-1.041q.089 0 .216.006.133.006.222.044.095 0 .12.076.032.076.077.172.025.025.057.07.038.044.063.095.032.044.051.095.02.05.02.089l-.051.565q0 .178-.077.394-.076.216-.222.387-.05.05-.076.114-.02.057-.045.121-.019.064-.05.133-.026.064-.077.127-.038.045-.088.108-.045.064-.102.134-.05.063-.114.12-.058.051-.121.077-.095.05-.159.088-.063.039-.114.064-.05.025-.108.032-.05.012-.114.012-.096 0-.178-.044-.083-.044-.146-.114-.057-.076-.095-.165-.039-.096-.039-.19v-.426q0-.038-.025-.07-.025-.032-.025-.178-.007-.184.089-.445.095-.26.222-.508.133-.254.26-.444.134-.197.203-.241.07-.045.115-.096.05-.057.095-.101.044-.045.089-.07.05-.032.127-.032zm.032.723q-.102 0-.21.09-.102.082-.19.196-.09.108-.16.222-.07.108-.094.16l-.064.24q-.025.09-.044.172-.013.082-.013.102v.12q.025.02.044.076.02.057.045.115.032.057.07.101.038.045.108.045.127-.057.235-.115.088-.05.171-.108.089-.057.12-.114.039-.089.083-.21l.095-.228q-.012-.05.026-.102.044-.05.044-.095v-.178q0-.031-.019-.108-.012-.082-.05-.165-.032-.089-.083-.152-.05-.064-.114-.064zm1.854-.762q.07-.012.089.02.025.031.108.07.07.038.12.088.051.051.051.121l-.013.07q-.012.082.013.159 0 .057-.025.14-.02.076-.007.126.013.026.038.051l.039.038q.025.013.044 0 .064-.012.133-.12.077-.108.146-.242.07-.133.14-.26t.127-.172l.197-.05q.038-.013.083-.006.05.006.076.006.12.07.152.197.032.12.045.19.006.089-.064.235-.063.146-.165.241-.044.026-.083.045l-.076.025h-.05l-.039-.019q-.031-.013-.063-.013-.026-.006-.064-.006-.082 0-.158.064-.07.063-.14.133-.108.133-.172.305-.057.165-.057.311-.044.044-.108.114-.057.064-.089.153-.038.089-.038.184.007.095-.031.184.006.076 0 .178-.007.095-.026.203-.013.108-.038.21-.025.095-.057.171-.045.032-.108.057-.064.026-.133.038-.077.02-.165.026-.032 0-.083-.051-.025-.026-.044-.05l-.09-.179q-.006-.044.013-.152.02-.108.045-.216l.044-.203q.026-.09.026-.102.14-.21.184-.438.044-.235.095-.464l-.05-.419q-.033-.082-.083-.082-.045 0-.096.013-.101.019-.146.057-.044.031-.076.07-.032.038-.07.076-.038.032-.133.044-.05 0-.064-.063-.012-.064-.025-.115-.013-.057.02-.108.03-.057.082-.101.057-.051.127-.095.07-.051.127-.102.076-.083.133-.178.057-.101.114-.184.057-.089.127-.146.077-.064.19-.076zm3.588-2.508q.184 0 .228.114.05.115.05.26v.121q0 .09-.056.191-.057.102-.14.19-.082.083-.178.147-.089.057-.152.057-.083 0-.14-.026-.057-.025-.108-.025-.133 0-.28.082-.139.083-.177.267-.05.095-.05.172.006.07-.02.146-.057.133-.12.349-.058.21-.058.394 0 .019-.012.063-.007.044-.02.095l-.025.121v.197l-.089.514q.013.09-.006.21-.013.114-.044.266-.032.153-.064.33-.032.178-.044.375 0 .038.012.127.02.083.064.083.057 0 .12-.038.07-.038.134-.096.063-.057.127-.12l.127-.115q.12-.12.247-.215.127-.102.248-.102l.038.05q0 .07-.038.166-.038.089-.095.184t-.127.178q-.07.082-.133.127-.127.089-.21.216-.076.127-.21.26-.044.095-.14.159-.088.057-.177.108l-.235.095q-.133.063-.229.063-.07 0-.101-.025-.026-.019-.032-.063-.006-.045 0-.115.013-.07.013-.171v-.407q0-.088.031-.177.039-.09.039-.172v-.127q0 .051.012-.044.013-.102.032-.292.02-.197.032-.464t.012-.559q0-.038.032-.108.038-.076.038-.12v-.229q.038-.184.057-.362l.039-.35q.019-.17.05-.342.032-.178.102-.356.05-.171.165-.33.114-.159.203-.343.045-.082.096-.152.057-.07.14-.114.088-.146.24-.229.16-.089.305-.089zm2.75 0h.177q.025 0 .05.038.026.038.039.09.019.056.032.12v.178q0 .222-.153.374-.152.153-.394.153-.012-.013-.031-.026-.038-.025-.07-.025-.045 0-.09.013-.044.012-.069.038-.038.038-.089.14-.044.101-.089.215-.038.108-.07.21-.031.095-.038.127l-.031.159q-.039.108-.083.19-.038.083-.07.172-.025.088-.044.19-.02.102-.02.241-.025.045-.063.184-.032.134-.063.286-.026.146-.045.273-.019.12-.019.14v.12q0 .032-.013.102-.006.07-.019.146-.006.076-.019.146-.006.064-.006.083-.019.07-.025.127 0 .057.006.095.006.05.019.083 0 .019-.013.07-.006.05-.006.107 0 .058.013.102.012.038.063.038.083 0 .165-.057.09-.057.16-.127l.12-.133q.057-.058.082-.058.038 0 .07.039.038.038.038.088-.063.07-.108.14-.044.064-.076.133-.032.064-.032.134-.025.07-.076.14-.05.063-.114.14-.064.075-.127.158-.057.076-.102.159 0 .019-.032.05-.025.026-.063.051-.038.026-.083.045-.038.025-.057.032-.146.107-.247.158-.102.051-.102-.019-.063.032-.089-.019-.025-.044-.038-.14-.006-.088 0-.203.006-.12.006-.222.007-.102 0-.171-.006-.07-.038-.07-.05 0-.133.07-.076.063-.165.158-.057.051-.134.146-.076.096-.158.19-.077.09-.153.16-.07.07-.108.07-.063 0-.127-.039-.063-.031-.114-.082-.044-.05-.076-.114-.032-.07-.032-.14V108.882q0-.02.013-.09.012-.076.032-.164.019-.102.044-.223 0-.025.006-.07l.026-.082q.019-.044.038-.095v-.051l.025-.127q.013-.051.02-.102.006-.05.006-.07.038-.095.05-.177.02-.083.077-.178.019-.14.095-.242.082-.101.19-.184.108-.082.216-.152.114-.076.203-.165.038 0 .07-.006.064-.013.108-.064l.178-.031q.07-.013.108-.039.044-.031.057-.076.02-.044.025-.133l.051-.178.057-.387.051-.248q0-.019.013-.089.013-.07.032-.146.019-.076.038-.14.019-.07.025-.082.013-.032.013-.05v-.058q0-.025.019-.076l.044-.114q.026-.064.058-.121l.057-.114q.063-.083.14-.19.076-.109.158-.204.083-.095.172-.165.088-.076.184-.095h.05q.096 0 .115-.026.025-.025.063-.025zm-1.855 3.251q-.127 0-.248.083-.12.082-.216.203-.089.12-.146.248-.057.127-.057.222 0 .025-.019.14-.013.108-.006.222.012.108.07.184.057.076.203.038.12-.032.228-.159.115-.127.19-.298.083-.171.122-.356.044-.19.038-.349 0-.05-.02-.089-.012-.032-.05-.057-.032-.032-.09-.032zm3.956-.743q.07-.012.089.02.025.031.108.07.07.038.12.088.051.051.051.121l-.012.07q-.013.082.012.159 0 .057-.025.14-.02.076-.007.126.013.026.039.051l.038.038q.025.013.044 0 .064-.012.133-.12.077-.108.146-.242.07-.133.14-.26t.127-.172l.197-.05q.038-.013.083-.006.05.006.076.006.12.07.152.197.032.12.045.19.006.089-.064.235-.063.146-.165.241-.044.026-.083.045l-.076.025h-.05l-.039-.019q-.031-.013-.063-.013-.026-.006-.064-.006-.082 0-.158.064-.07.063-.14.133-.108.133-.172.305-.057.165-.057.311-.044.044-.108.114-.057.064-.089.153-.038.089-.038.184.007.095-.031.184.006.076 0 .178-.007.095-.026.203-.012.108-.038.21-.025.095-.057.171-.044.032-.108.057-.063.026-.133.038-.077.02-.165.026-.032 0-.083-.051-.025-.026-.044-.05l-.09-.179q-.006-.044.013-.152.02-.108.045-.216l.044-.203q.026-.09.026-.102.14-.21.184-.438.044-.235.095-.464l-.05-.419q-.032-.082-.083-.082-.045 0-.096.013-.101.019-.146.057-.044.031-.076.07-.032.038-.07.076-.038.032-.133.044-.05 0-.063-.063-.013-.064-.026-.115-.013-.057.02-.108.03-.057.082-.101.057-.051.127-.095.07-.051.127-.102.076-.083.133-.178.057-.101.114-.184.058-.089.127-.146.077-.064.19-.076zm2.616.039q.133 0 .222.05.096.045.153.127.057.083.082.19.026.109.02.23 0 .17-.128.279-.127.101-.26.178-.12.082-.26.146-.134.063-.254.14-.115.076-.197.177-.076.102-.083.26v.267q-.012.108.045.216.057.102.146.102.006.006.05-.02.045-.025.096-.056.057-.039.108-.077.057-.038.082-.057.096-.044.146-.07.058-.031.083-.019.044 0 .076.013t.032.095q-.013.14-.12.273-.109.127-.236.242-.127.108-.247.19-.121.083-.16.12-.107.096-.202.102-.09.006-.184.006-.058-.006-.121-.05-.057-.045-.108-.102-.045-.064-.07-.127-.025-.064-.019-.108v-.108q0-.044-.025-.095-.013-.026-.026-.045l.02-.127v-.101q0-.026.012-.134.013-.114.032-.24.019-.134.031-.249l.026-.158q.025-.02.025-.038 0-.02-.006-.039t-.006-.044q0-.032.025-.07 0-.076.032-.159l.038-.088.089-.21q.012-.14.133-.286.12-.152.28-.273.165-.12.336-.19.171-.077.292-.064zm-.286.476q-.031 0-.063.05-.032.045-.064.102l-.063.146q-.007.032-.02.076-.012.039-.018.077-.007.031.006.057.013.019.05.019.033.006.096-.013.064-.019.127-.057.07-.038.12-.089.058-.057.064-.12v-.108q0-.032-.019-.058-.019-.025-.044-.038-.026-.019-.064-.032zm2.388-.534q.095 0 .171.09.077.088.077.177 0 .07-.102.12-.102.045-.229.09l-.254.076q-.12.038-.158.082-.057.058-.083.134-.025.07-.025.146 0 .076.025.146.026.07.064.127.044.089.101.19.064.096.115.223.05.127.082.285.038.16.038.356 0 .171-.114.35-.114.17-.292.304-.14.076-.216.127-.076.044-.133.07-.058.032-.115.038-.05.013-.133.013h-.229q-.031 0-.082.006-.051.006-.102.019-.063.013-.133.025H64.246q-.178 0-.178-.171 0-.045.057-.14.057-.095.146-.184.083-.089.178-.159.095-.07.165-.07.02 0 .064.032l.101.057q.064.032.14.064.076.025.172.025.063 0 .114-.038.057-.038.095-.089.038-.057.057-.114.02-.064.02-.108 0-.108-.083-.26-.083-.16-.184-.318-.102-.165-.185-.311-.082-.146-.082-.241v-.07q.025-.108.076-.223.05-.114.114-.21.064-.094.14-.164.076-.076.165-.095.045-.026.09-.083.05-.057.088-.108.05-.05.089-.095.044-.051.089-.064.05-.044.159-.05.107-.007.158-.007zm1.213-.546q.019 0 .063.026.051.019.096.057.05.032.088.076.039.044.039.089l-.108.26-.09.216-.07.159q-.018.025-.069.108-.05.076-.108.171-.057.09-.102.178-.038.09-.038.127l.058.09q.063 0 .19-.128.133-.127.28-.28.145-.152.285-.279.14-.127.229-.127.095 0 .146.102.05.095.076.216.032.12.038.228.007.108.007.127 0 .038-.032.153-.026.108-.038.197-.026.019-.026.044 0 .02.007.032.006.019.019.032-.007.07-.058.203-.044.127-.101.254-.057.127-.108.235-.05.101-.07.12-.07.108-.152.19-.077.083-.165.16-.09.082-.216.165-.127.076-.21.21-.095.088-.203.152-.102.063-.19.133-.09.076-.14.165-.051.095-.032.235v.127q-.006.089-.02.146-.012.064-.03.127-.014.07-.026.153-.013.082-.013.222-.006.114-.019.178-.006.063-.025.101-.013.038-.026.064-.012.025-.019.063v.134q0 .088-.013.222v.14q0 .133.064.152.07.025.165.025h.12q.096 0 .16.083.07.089.07.184 0 .038-.051.076-.045.038-.121.083-.095 0-.197.057-.095.057-.229.044h-.247q-.134.032-.273.038-.14.013-.273.051-.07-.006-.102 0-.038.006-.063.02-.032.012-.058.024-.031.013-.076.013-.038-.006-.07-.038-.038-.032-.057-.076-.025-.038-.038-.076-.013-.038-.013-.057.007-.077.051-.115.038-.032.095-.05.058-.013.121-.013h.102q.025-.02.063-.032.032-.006.064-.025.025-.013.05-.039.02-.019.02-.063.019-.044.044-.12l.038-.147.038-.133q.013-.057.02-.076v-.057q0-.026.018-.134.02-.101.051-.216.026-.133.07-.298.013-.038.032-.07l.025-.063q.013-.026.013-.045 0-.044.006-.152.013-.102.013-.343l.07-.178.07-.406.019-.178q0-.02.019-.057.019-.045.044-.096.025-.05.045-.108.019-.057.019-.107.006-.09.006-.166l.013-.146.012-.146q.02-.089.045-.171l.038-.14q.019-.07.044-.114l.013-.356q0-.12-.12-.12-.051 0-.102.044-.045.044-.108.095-.14.14-.216.14-.032-.006-.038-.013l-.013-.025q-.006-.013 0-.032 0-.127.083-.228.082-.108.165-.229.095-.178.228-.343.134-.165.273-.33.14-.172.26-.343.128-.178.21-.381l.057-.025q.064-.026.115-.026zm.235 1.677q-.051 0-.127.044-.07.044-.146.108-.07.057-.12.114-.052.051-.052.07-.089.184-.146.337-.05.146-.12.317v.178q0 .05.019.114.025.064.158.076.038 0 .108-.05.077-.051.146-.121.083-.076.172-.178.05-.032.095-.076.045-.05.102-.102.038-.082.044-.108.006-.031.006-.12 0-.02-.006-.045l-.013-.063q-.012-.032-.019-.07v-.19q0-.051-.006-.096-.006-.05-.032-.089-.019-.044-.063-.05zm2.032-1.073q.089 0 .216.006.133.006.222.044.095 0 .12.076.032.076.077.172.025.025.057.07.038.044.063.095.032.044.051.095.02.05.02.089l-.052.565q0 .178-.076.394-.076.216-.222.387-.05.05-.076.114-.02.057-.045.121-.019.064-.05.133-.026.064-.077.127l-.089.108q-.044.064-.101.134-.05.063-.114.12-.058.051-.121.077-.095.05-.159.088-.063.039-.114.064-.05.025-.108.032-.05.012-.114.012-.096 0-.178-.044-.083-.044-.146-.114-.057-.076-.095-.165-.039-.096-.039-.19v-.426q0-.038-.025-.07-.025-.032-.025-.178-.007-.184.089-.445.095-.26.222-.508.133-.254.26-.444.133-.197.203-.241.07-.045.115-.096.05-.057.095-.101.044-.045.089-.07.05-.032.127-.032zm.032.723q-.102 0-.21.09-.102.082-.19.196-.09.108-.16.222-.07.108-.095.16l-.063.24q-.025.09-.044.172-.013.082-.013.102v.12q.025.02.044.076.02.057.045.115.031.057.07.101.038.045.108.045.127-.057.234-.115.09-.05.172-.108.089-.057.12-.114.039-.089.083-.21l.095-.228q-.012-.05.026-.102.044-.05.044-.095v-.178q0-.031-.019-.108-.013-.082-.05-.165-.032-.089-.083-.152-.051-.064-.114-.064zm1.854-.654q.07 0 .108.045.038.044.07.095.019.044.012.12-.006.077-.025.153-.013.076-.032.146-.013.07-.013.095l.02.102.07.127q.025 0 .095-.07.076-.076.171-.184.102-.108.21-.229.107-.127.21-.235.1-.107.183-.177.083-.077.12-.077.052 0 .083.064.039.063.07.133.032.083.057.19.007.09-.012.248-.02.16-.064.35-.038.184-.089.38-.044.191-.089.356-.038.16-.07.267-.025.108-.025.114 0 .026-.006.064-.006.032-.006.063 0 .026.012.045.02.019.07.019l.076-.051q.032-.025.07-.05l.083-.058.197-.127q.095-.063.12-.063.038 0 .083.044.044.038.044.076 0 .013-.044.07-.038.057-.095.12-.058.064-.115.115-.057.05-.082.05 0 .052-.038.096-.032.045-.07.045-.102.108-.172.21-.07.1-.14.19-.07.082-.152.133-.082.05-.21.05-.044 0-.095-.031-.044-.032-.082-.076-.038-.051-.064-.102-.019-.057-.019-.095l-.019-.229q.038-.171.095-.368.064-.197.115-.368.05-.146.082-.28.032-.133.045-.254v-.07q-.026-.177-.127-.177-.153 0-.242.07-.088.063-.146.17-.057.102-.101.223-.038.12-.09.229-.03.038-.044.076-.006.032.007.082-.013.077-.032.153-.013.076-.038.146-.07.203-.133.406-.064.197-.115.369.032.05-.012.057-.039.012-.077.012t-.108-.006q-.07 0-.14-.019-.063-.019-.12-.057-.05-.038-.057-.108-.013-.108.025-.222.038-.12.083-.222.05-.102.095-.178t.045-.102V108.374l-.032-.108q0-.038.025-.095l.051-.121.057-.114q.026-.051.026-.077v-.089l-.02-.247q0-.038-.012-.076-.006-.045-.057-.045-.038 0-.09.02-.044.018-.094.044l-.09.038q-.037.019-.063.019h-.05q-.045-.026-.026-.095.025-.077.025-.115.16-.222.305-.387.153-.172.362-.305.045-.025.12-.063.077-.039.147-.039zm3.46-.127q.096 0 .172.09.076.088.076.177 0 .07-.101.12-.102.045-.23.09l-.253.076q-.12.038-.159.082-.057.058-.082.134-.026.07-.026.146 0 .076.026.146.025.07.063.127.045.089.102.19.063.096.114.223.05.127.083.285.038.16.038.356 0 .171-.115.35-.114.17-.292.304-.14.076-.216.127-.076.044-.133.07-.057.032-.114.038-.051.013-.134.013h-.228q-.032 0-.083.006-.05.006-.101.019-.064.013-.134.025H73.072q-.177 0-.177-.171 0-.045.057-.14.057-.095.146-.184.082-.089.178-.159.095-.07.165-.07.019 0 .063.032l.102.057q.063.032.14.064.076.025.171.025.064 0 .114-.038.057-.038.096-.089.038-.057.057-.114.019-.064.019-.108 0-.108-.083-.26-.082-.16-.184-.318-.102-.165-.184-.311-.083-.146-.083-.241v-.07q.026-.108.077-.223.05-.114.114-.21.063-.094.14-.164.076-.076.165-.095.044-.026.089-.083.05-.057.088-.108.051-.05.09-.095.044-.051.088-.064.051-.044.159-.05.108-.007.159-.007zm.953.02q.108 0 .178.082.07.076.07.165l-.058.178q.039.038.051.108.007.032.007.07 0 .127-.032.235-.026.108-.026.241v.05q0 .033-.006.077-.006.038-.019.076-.013.045-.025.095v.07q0 .07-.026.115-.019.044-.044.114-.013.05-.045.108-.025.05-.025.12 0 .026.013.07.012.038.038.083.025.038.057.07.038.025.082.025.051 0 .09-.032.044-.031.07-.07.03-.031.063-.05.038-.026.082-.026h.12q.039 0 .045.038.007.038.007.09 0 .018-.058.075l-.127.127-.14.127-.095.077q-.019.044-.082.152-.064.108-.14.222-.076.108-.165.19-.082.09-.146.09-.044 0-.102-.032-.05-.025-.095-.076-.044-.045-.076-.095-.025-.051-.025-.102v-.102q0-.05-.007-.089-.006-.038-.044-.038v-.12l.05-.178v-.299q0-.095.026-.152.025-.057.025-.146v-.057q0-.045.026-.127.032-.083.063-.178.032-.095.058-.184.031-.095.031-.165 0-.051-.044-.108-.038-.064-.134-.064-.038 0-.07.026-.025.025-.158.025-.013-.006-.026-.032-.025-.038-.025-.095v-.102q0-.057.108-.165.114-.114.254-.222.146-.114.28-.197.133-.089.17-.089zm.019-1.5q.025 0 .064-.005.044-.013.088-.02.045-.012.083-.018.044-.013.063-.013.09.032.115.108.025.076.076.159 0 .05.006.101.013.051.013.096 0 .038-.025.095-.026.05-.026.133-.013.045-.038.108-.019.064-.057.12-.032.052-.083.09-.044.031-.108.019-.088 0-.196-.057-.102-.064-.153-.16-.044-.037-.032-.114.013-.076.013-.133 0-.171.057-.28.057-.107.14-.228zm2.102-1.06h.171q.051 0 .096.026.05.025.101.025l.178-.05h.102q.044 0 .095.031.057.026.101.07.051.044.077.095.031.045.031.083 0 .095-.025.203-.025.108-.089.216-.063.102-.165.184-.102.083-.254.12H78.35q-.07 0-.16.039-.082.038-.158.101-.076.058-.127.134-.051.07-.051.133-.05.045-.07.146-.013.095-.057.172-.05.057-.063.158-.007.096-.007.146l-.07.229q0 .089-.038.178t-.089.19q-.044.102-.082.223-.038.114-.038.254v.127q0 .031.025.044.013.006.032.006.044 0 .089-.076.044-.076.114-.172.07-.095.172-.171.101-.076.26-.076l.14-.051q.146 0 .222.089.076.082.076.228v.051l-.05.127.025.102q.012.044.019.095.006.044.006.082 0 .07-.02.09-.012.031-.024.056-.007.02-.007.032 0 .026.007.045.006.012.012.038.007.025 0 .063 0 .038-.019.102v.19q0 .02-.038.083l-.076.133q-.045.076-.095.165-.051.09-.077.172l-.07.28q-.114.164-.215.298-.09.114-.172.222-.076.108-.108.133-.07.045-.108.083-.038.038-.076.063-.038.026-.095.038-.057.013-.178.013l-.178.05q-.05 0-.07-.03-.019-.026-.025-.077l-.013-.102q-.006-.057-.031-.108 0-.031-.02-.063-.019-.038-.031-.076-.045-.051-.09-.096-.037-.05-.037-.12 0-.051.032-.134.019-.044.038-.095v-.19l.057-.585v-.127l.12-.597V107.084q0-.05.032-.216.038-.165.038-.387v-.178l.178-.724v-.05q0-.045.013-.14l.038-.204.057-.254.05-.178q.014-.095.052-.165.044-.076.127-.21zm-.356 3.41q-.089 0-.184.134-.089.133-.165.304-.076.172-.127.337-.05.159-.05.21v.247q0 .064.012.114l.025.083q.013.032.045.032h.076q.089-.032.19-.115.108-.082.197-.184.09-.101.146-.21.064-.107.064-.196V107.719l-.032-.127.032-.101q0-.229-.229-.229zm3.156-3.359q.184 0 .229.114.05.115.05.26v.121q0 .09-.057.19-.057.103-.14.191-.082.083-.177.146-.089.058-.152.058-.083 0-.14-.026-.057-.025-.108-.025-.133 0-.28.082-.14.083-.177.267-.051.095-.051.172.006.07-.02.146-.056.133-.12.349-.057.21-.057.394 0 .019-.013.063-.006.044-.019.095l-.025.121v.197l-.089.514q.013.09-.006.21-.013.114-.045.266-.031.153-.063.33-.032.178-.045.375 0 .038.013.127.02.083.064.083.057 0 .12-.038.07-.038.134-.096.063-.057.127-.12l.127-.115q.12-.12.247-.215.127-.102.248-.102l.038.05q0 .07-.038.166-.038.089-.095.184-.058.095-.127.178-.07.082-.134.127-.127.089-.21.216-.076.127-.209.26-.044.095-.14.159-.088.057-.177.108l-.235.095q-.134.063-.229.063-.07 0-.102-.025-.025-.019-.031-.063-.007-.045 0-.115.012-.07.012-.171v-.407q0-.089.032-.177.038-.09.038-.172v-.127q0 .05.013-.044.013-.102.032-.292.019-.197.031-.464.013-.267.013-.559 0-.038.032-.108.038-.076.038-.12v-.229q.038-.184.057-.362l.038-.35q.02-.17.051-.342.032-.178.102-.356.05-.171.165-.33.114-.159.203-.343.044-.082.095-.152.057-.07.14-.114.089-.146.241-.229.159-.089.305-.089zm2.223 2.686q.127 0 .184.076.063.077.063.172l-.076.425v.102q0 .07-.013.146-.012.07-.05.133-.038.064-.108.108-.064.038-.178.038-.05 0-.064.038-.006.02-.006.032-.089.089-.133.178-.038.082-.07.171-.025.083-.057.165-.026.083-.076.16-.039.037-.077.088-.031.045-.031.14-.038.063-.064.12-.032.051-.057.096-.025.044-.038.063-.026.076-.05.12l-.058.084q-.025.044-.057.095-.032.05-.064.146-.025.07-.05.108-.02.038-.039.07l-.025.063q-.013.032-.025.076l-.051.14q-.032.05-.045.076-.012.032-.082.102-.07.089-.127.165-.051.076-.051.114-.102.254-.368.553-.121.158-.223.298-.095.14-.184.19-.444.267-.705.553-.044.013-.127.057-.088.045-.177.095-.108.058-.229.127h-.07q-.038 0-.114.032-.076.038-.114.038h-.19q-.033 0-.109-.038-.082-.032-.127-.032-.019 0-.057.013l-.089.026q-.05.019-.102.031-.076 0-.133-.05-.063-.045-.146-.127-.05 0-.127-.045-.082-.044-.12-.095 0-.013-.007-.057-.013-.045-.019-.102-.013-.057-.019-.114-.006-.05-.006-.076 0-.09.057-.172.057-.082.14-.152.082-.064.171-.102.089-.038.159-.038t.159.038q.082.038.177.09.121.05.223.1.095.058.165.058l.21.032q.063-.045.145-.057l.159-.026q.076-.013.152-.038.077-.019.146-.089.134-.038.267-.133.134-.09.26-.222.045-.039.108-.127.064-.083.108-.172.09-.089.172-.21.089-.12.127-.215.063-.064.127-.16.07-.094.114-.202.051-.102.083-.21.031-.108.031-.203v-.248l.026-.12q.013-.051.019-.096.006-.05.006-.082 0-.045-.025-.064-.025-.025-.025-.114v-.05q-.02-.02-.032-.045-.026-.051-.026-.083v-.05q0-.115-.044-.242-.045-.133-.114-.254-.07-.127-.172-.228-.095-.108-.197-.178-.05-.051-.07-.026-.012.026-.057.026h-.19l-.108.05q-.05 0-.12-.037-.07-.045-.07-.134 0-.019.076-.114t.171-.203q.102-.115.19-.21.09-.101.108-.127.051-.05.127-.089.083-.038.172-.038.133 0 .197.089.063.083.159.216.088.184.146.324.057.14.101.273.02.108.045.184.025.07.044.133.025.064.032.127.013.064 0 .16-.013.043 0 .1.019.058.044.109.032.05.07.089.038.031.064.031.038 0 .076-.082.044-.083.082-.184.038-.108.07-.21.032-.108.051-.159l.089-.127q.038-.063.076-.114.038-.057.083-.108.05-.057.127-.127.05-.07.07-.152l.05-.165q.013-.077.038-.153.026-.076.07-.127.051-.095.102-.171.05-.077.146-.077zm.508 1.785q.025 0 .133.063.114.057.235.146.12.089.216.184.102.096.102.172 0 .044-.102.158-.102.115-.235.235-.127.115-.254.204-.12.088-.165.088-.07 0-.14-.076-.063-.07-.114-.158-.05-.09-.089-.172-.032-.089-.032-.108 0-.025.051-.127.05-.101.12-.222l.147-.229q.076-.114.127-.158z"
     aria-label="Building software and AI solutions to bring good to the world responsibly."
     style="font-size:6.35px;font-family:Trattatello;-inkscape-font-specification:Trattatello;white-space:pre;inline-size:60.1691;stroke-width:0.264583;fill:#00ffff"
     id="path1" />
</svg>
